<svg width="928" height="460" viewBox="0 0 928 460" fill="none" xmlns="http://www.w3.org/2000/svg">
<rect width="928" height="460" rx="4" fill="#F4F4F4"/>
<path d="M382.78 238.24C380.54 238.24 378.96 237.32 377.84 235.8L379.08 234.76C380.06 236.06 381.22 236.76 382.84 236.76C384.84 236.76 385.92 235.72 385.92 234.12C385.92 232.8 385.18 232.14 383.34 231.72L382.2 231.46C379.66 230.88 378.26 229.76 378.26 227.62C378.26 225.14 380.14 223.8 382.88 223.8C384.98 223.8 386.46 224.6 387.5 226.08L386.24 227C385.48 225.94 384.42 225.28 382.8 225.28C381.02 225.28 379.92 226.06 379.92 227.56C379.92 228.88 380.78 229.48 382.54 229.88L383.68 230.14C386.4 230.76 387.58 231.96 387.58 234.04C387.58 236.6 385.78 238.24 382.78 238.24ZM390.321 242V227.68H391.921V229.36H392.001C392.541 228.06 393.601 227.44 395.021 227.44C397.601 227.44 399.221 229.54 399.221 232.84C399.221 236.14 397.601 238.24 395.021 238.24C393.601 238.24 392.621 237.6 392.001 236.32H391.921V242H390.321ZM394.581 236.8C396.381 236.8 397.501 235.56 397.501 233.72V231.96C397.501 230.12 396.381 228.88 394.581 228.88C393.121 228.88 391.921 229.72 391.921 230.86V234.7C391.921 236.04 393.121 236.8 394.581 236.8ZM405.803 238.24C403.003 238.24 401.163 236.12 401.163 232.84C401.163 229.56 403.003 227.44 405.803 227.44C408.563 227.44 410.263 229.56 410.263 232.48V233.24H402.843V233.72C402.843 235.5 403.983 236.84 405.903 236.84C407.203 236.84 408.203 236.2 408.743 235.06L409.883 235.88C409.223 237.28 407.743 238.24 405.803 238.24ZM405.803 228.78C404.063 228.78 402.843 230.1 402.843 231.9V232.04H408.543V231.82C408.543 230 407.443 228.78 405.803 228.78ZM416.779 238.24C413.979 238.24 412.139 236.12 412.139 232.84C412.139 229.56 413.979 227.44 416.779 227.44C419.539 227.44 421.239 229.56 421.239 232.48V233.24H413.819V233.72C413.819 235.5 414.959 236.84 416.879 236.84C418.179 236.84 419.179 236.2 419.719 235.06L420.859 235.88C420.199 237.28 418.719 238.24 416.779 238.24ZM416.779 228.78C415.039 228.78 413.819 230.1 413.819 231.9V232.04H419.519V231.82C419.519 230 418.419 228.78 416.779 228.78ZM430.476 238V236.32H430.396C429.776 237.6 428.796 238.24 427.376 238.24C424.796 238.24 423.176 236.14 423.176 232.84C423.176 229.54 424.796 227.44 427.376 227.44C428.796 227.44 429.856 228.06 430.396 229.36H430.476V223.2H432.076V238H430.476ZM427.816 236.8C429.276 236.8 430.476 236.04 430.476 234.7V230.86C430.476 229.72 429.276 228.88 427.816 228.88C426.016 228.88 424.896 230.12 424.896 231.96V233.72C424.896 235.56 426.016 236.8 427.816 236.8ZM444.344 238H442.484L438.864 227.68H440.464L442.264 232.8L443.384 236.32H443.484L444.604 232.8L446.444 227.68H447.984L444.344 238ZM450.848 225.26C450.168 225.26 449.868 224.9 449.868 224.36V224.1C449.868 223.56 450.168 223.2 450.848 223.2C451.528 223.2 451.828 223.56 451.828 224.1V224.36C451.828 224.9 451.528 225.26 450.848 225.26ZM450.048 238V227.68H451.648V238H450.048ZM458.148 238.24C456.248 238.24 454.988 237.44 454.068 236.22L455.208 235.3C456.008 236.3 456.968 236.88 458.268 236.88C459.628 236.88 460.428 236.26 460.428 235.2C460.428 234.4 459.988 233.78 458.628 233.58L457.808 233.46C455.908 233.18 454.488 232.4 454.488 230.48C454.488 228.44 456.068 227.44 458.168 227.44C459.828 227.44 460.928 228.06 461.768 229.1L460.708 230.06C460.248 229.42 459.368 228.8 458.048 228.8C456.728 228.8 456.028 229.42 456.028 230.4C456.028 231.4 456.728 231.8 458.008 232L458.808 232.12C461.088 232.46 461.968 233.46 461.968 235.02C461.968 237.02 460.508 238.24 458.148 238.24ZM471.154 238V236.32H471.074C470.674 237.3 469.894 238.24 468.174 238.24C466.054 238.24 464.694 236.8 464.694 234.3V227.68H466.294V234.02C466.294 235.86 467.114 236.8 468.654 236.8C469.914 236.8 471.154 236.18 471.154 234.82V227.68H472.754V238H471.154ZM484.561 238H483.661C482.481 238 482.001 237.28 481.881 236.32H481.781C481.341 237.58 480.241 238.24 478.801 238.24C476.621 238.24 475.341 237.04 475.341 235.12C475.341 233.18 476.741 232.1 479.741 232.1H481.781V231.08C481.781 229.62 480.981 228.82 479.341 228.82C478.101 228.82 477.281 229.42 476.721 230.36L475.761 229.46C476.321 228.36 477.561 227.44 479.421 227.44C481.901 227.44 483.381 228.74 483.381 230.92V236.6H484.561V238ZM479.061 236.88C480.641 236.88 481.781 236.06 481.781 235V233.3H479.661C477.841 233.3 477.021 233.86 477.021 234.86V235.28C477.021 236.3 477.821 236.88 479.061 236.88ZM489.965 238H488.545C487.445 238 486.845 237.3 486.845 236.34V223.2H488.445V236.6H489.965V238ZM493.094 225.26C492.414 225.26 492.114 224.9 492.114 224.36V224.1C492.114 223.56 492.414 223.2 493.094 223.2C493.774 223.2 494.074 223.56 494.074 224.1V224.36C494.074 224.9 493.774 225.26 493.094 225.26ZM492.294 238V227.68H493.894V238H492.294ZM504.214 238H496.254V236.66L502.114 229.08H496.434V227.68H504.054V228.88L498.074 236.6H504.214V238ZM514.971 238H514.071C512.891 238 512.411 237.28 512.291 236.32H512.191C511.751 237.58 510.651 238.24 509.211 238.24C507.031 238.24 505.751 237.04 505.751 235.12C505.751 233.18 507.151 232.1 510.151 232.1H512.191V231.08C512.191 229.62 511.391 228.82 509.751 228.82C508.511 228.82 507.691 229.42 507.131 230.36L506.171 229.46C506.731 228.36 507.971 227.44 509.831 227.44C512.311 227.44 513.791 228.74 513.791 230.92V236.6H514.971V238ZM509.471 236.88C511.051 236.88 512.191 236.06 512.191 235V233.3H510.071C508.251 233.3 507.431 233.86 507.431 234.86V235.28C507.431 236.3 508.231 236.88 509.471 236.88ZM521.535 238H519.535C518.435 238 517.835 237.3 517.835 236.3V229.08H516.135V227.68H517.095C517.775 227.68 517.995 227.44 517.995 226.74V224.82H519.435V227.68H521.695V229.08H519.435V236.6H521.535V238ZM525.066 225.26C524.386 225.26 524.086 224.9 524.086 224.36V224.1C524.086 223.56 524.386 223.2 525.066 223.2C525.746 223.2 526.046 223.56 526.046 224.1V224.36C526.046 224.9 525.746 225.26 525.066 225.26ZM524.266 238V227.68H525.866V238H524.266ZM533.166 238.24C530.406 238.24 528.506 236.12 528.506 232.84C528.506 229.56 530.406 227.44 533.166 227.44C535.926 227.44 537.826 229.56 537.826 232.84C537.826 236.12 535.926 238.24 533.166 238.24ZM533.166 236.82C534.886 236.82 536.106 235.76 536.106 233.58V232.1C536.106 229.92 534.886 228.86 533.166 228.86C531.446 228.86 530.226 229.92 530.226 232.1V233.58C530.226 235.76 531.446 236.82 533.166 236.82ZM542.058 238H540.458V227.68H542.058V229.36H542.138C542.638 228.2 543.518 227.44 545.058 227.44C547.178 227.44 548.518 228.88 548.518 231.38V238H546.918V231.66C546.918 229.82 546.118 228.88 544.578 228.88C543.298 228.88 542.058 229.52 542.058 230.84V238Z" fill="#8D8D8D"/>
<rect width="928" height="460" rx="4" fill="#F4F4F4"/>
<path d="M26.324 424L21.92 416.608H21.884V424H21.188V415.624H22.088L26.492 423.016H26.528V415.624H27.224V424H26.324ZM31.7141 424.144C30.0941 424.144 29.0381 422.944 29.0381 420.928C29.0381 418.912 30.0941 417.712 31.7141 417.712C33.3341 417.712 34.3901 418.912 34.3901 420.928C34.3901 422.944 33.3341 424.144 31.7141 424.144ZM31.7141 423.532C32.9021 423.532 33.6581 422.752 33.6581 421.312V420.544C33.6581 419.116 32.9021 418.324 31.7141 418.324C30.5261 418.324 29.7701 419.104 29.7701 420.544V421.312C29.7701 422.74 30.5261 423.532 31.7141 423.532ZM38.4077 424H37.1837C36.6917 424 36.4277 423.7 36.4277 423.244V418.456H35.3597V417.856H36.0557C36.3917 417.856 36.4877 417.736 36.4877 417.388V416.14H37.1117V417.856H38.5037V418.456H37.1117V423.4H38.4077V424ZM43.3192 416.188C42.9952 416.188 42.8512 416.008 42.8512 415.756V415.636C42.8512 415.384 42.9952 415.204 43.3192 415.204C43.6432 415.204 43.7872 415.384 43.7872 415.636V415.756C43.7872 416.008 43.6432 416.188 43.3192 416.188ZM42.9832 424V417.856H43.6672V424H42.9832ZM46.5852 424H45.9012V417.856H46.5852V418.828H46.6212C46.8972 418.192 47.4492 417.712 48.4332 417.712C49.7412 417.712 50.5092 418.552 50.5092 420.052V424H49.8252V420.172C49.8252 418.924 49.2732 418.324 48.2532 418.324C47.3892 418.324 46.5852 418.768 46.5852 419.68V424ZM54.8229 424.144C53.1429 424.144 52.1709 422.956 52.1709 420.928C52.1709 418.9 53.1429 417.712 54.8229 417.712C55.9509 417.712 56.6469 418.264 57.0069 419.068L56.4309 419.356C56.1429 418.696 55.6269 418.324 54.8229 418.324C53.5749 418.324 52.9029 419.2 52.9029 420.496V421.36C52.9029 422.656 53.5749 423.532 54.8229 423.532C55.6629 423.532 56.2389 423.148 56.5869 422.464L57.0909 422.8C56.6949 423.616 55.9509 424.144 54.8229 424.144ZM60.248 424H59.372C58.88 424 58.616 423.7 58.616 423.256V415.12H59.3V423.4H60.248V424ZM65.6201 424V423.028H65.5721C65.3441 423.604 64.8401 424.144 63.7841 424.144C62.4761 424.144 61.6961 423.304 61.6961 421.804V417.856H62.3801V421.672C62.3801 422.932 62.9441 423.532 63.9641 423.532C64.8161 423.532 65.6201 423.088 65.6201 422.164V417.856H66.3041V424H65.6201ZM72.5138 424V423.016H72.4778C72.1538 423.7 71.5418 424.144 70.6058 424.144C69.0338 424.144 68.0738 422.956 68.0738 420.928C68.0738 418.9 69.0338 417.712 70.6058 417.712C71.5418 417.712 72.1778 418.156 72.4778 418.84H72.5138V415.12H73.1978V424H72.5138ZM70.7618 423.532C71.7098 423.532 72.5138 422.992 72.5138 422.128V419.692C72.5138 418.888 71.7098 418.324 70.7618 418.324C69.5378 418.324 68.8058 419.176 68.8058 420.496V421.36C68.8058 422.68 69.5378 423.532 70.7618 423.532ZM77.6284 424.144C75.9844 424.144 74.9404 422.944 74.9404 420.928C74.9404 418.912 75.9844 417.712 77.6164 417.712C79.1884 417.712 80.2084 418.936 80.2084 420.736V421.06H75.6604V421.36C75.6604 422.644 76.4044 423.544 77.6644 423.544C78.5404 423.544 79.1884 423.112 79.5244 422.308L80.0284 422.644C79.6444 423.544 78.7924 424.144 77.6284 424.144ZM77.6164 418.288C76.4284 418.288 75.6604 419.176 75.6604 420.472V420.532H79.4644V420.436C79.4644 419.14 78.7204 418.288 77.6164 418.288ZM85.92 424V423.016H85.884C85.56 423.7 84.948 424.144 84.012 424.144C82.44 424.144 81.48 422.956 81.48 420.928C81.48 418.9 82.44 417.712 84.012 417.712C84.948 417.712 85.584 418.156 85.884 418.84H85.92V415.12H86.604V424H85.92ZM84.168 423.532C85.116 423.532 85.92 422.992 85.92 422.128V419.692C85.92 418.888 85.116 418.324 84.168 418.324C82.944 418.324 82.212 419.176 82.212 420.496V421.36C82.212 422.68 82.944 423.532 84.168 423.532ZM95.6466 424V423.016H95.6106C95.2866 423.7 94.6746 424.144 93.7386 424.144C92.1666 424.144 91.2066 422.956 91.2066 420.928C91.2066 418.9 92.1666 417.712 93.7386 417.712C94.6746 417.712 95.3106 418.156 95.6106 418.84H95.6466V415.12H96.3306V424H95.6466ZM93.8946 423.532C94.8426 423.532 95.6466 422.992 95.6466 422.128V419.692C95.6466 418.888 94.8426 418.324 93.8946 418.324C92.6706 418.324 91.9386 419.176 91.9386 420.496V421.36C91.9386 422.68 92.6706 423.532 93.8946 423.532ZM102.405 424V423.028H102.357C102.129 423.604 101.625 424.144 100.569 424.144C99.2612 424.144 98.4812 423.304 98.4812 421.804V417.856H99.1652V421.672C99.1652 422.932 99.7292 423.532 100.749 423.532C101.601 423.532 102.405 423.088 102.405 422.164V417.856H103.089V424H102.405ZM107.523 424.144C105.879 424.144 104.835 422.944 104.835 420.928C104.835 418.912 105.879 417.712 107.511 417.712C109.083 417.712 110.103 418.936 110.103 420.736V421.06H105.555V421.36C105.555 422.644 106.299 423.544 107.559 423.544C108.435 423.544 109.083 423.112 109.419 422.308L109.923 422.644C109.539 423.544 108.687 424.144 107.523 424.144ZM107.511 418.288C106.323 418.288 105.555 419.176 105.555 420.472V420.532H109.359V420.436C109.359 419.14 108.615 418.288 107.511 418.288ZM116.959 424H115.735C115.243 424 114.979 423.7 114.979 423.244V418.456H113.911V417.856H114.607C114.943 417.856 115.039 417.736 115.039 417.388V416.14H115.663V417.856H117.055V418.456H115.663V423.4H116.959V424ZM120.835 424.144C119.215 424.144 118.159 422.944 118.159 420.928C118.159 418.912 119.215 417.712 120.835 417.712C122.455 417.712 123.511 418.912 123.511 420.928C123.511 422.944 122.455 424.144 120.835 424.144ZM120.835 423.532C122.023 423.532 122.779 422.752 122.779 421.312V420.544C122.779 419.116 122.023 418.324 120.835 418.324C119.647 418.324 118.891 419.104 118.891 420.544V421.312C118.891 422.74 119.647 423.532 120.835 423.532ZM128.421 416.188C128.097 416.188 127.953 416.008 127.953 415.756V415.636C127.953 415.384 128.097 415.204 128.421 415.204C128.745 415.204 128.889 415.384 128.889 415.636V415.756C128.889 416.008 128.745 416.188 128.421 416.188ZM128.085 424V417.856H128.769V424H128.085ZM131.687 424H131.003V417.856H131.687V418.828H131.723C131.999 418.192 132.551 417.712 133.535 417.712C134.843 417.712 135.611 418.552 135.611 420.052V424H134.927V420.172C134.927 418.924 134.375 418.324 133.355 418.324C132.491 418.324 131.687 418.768 131.687 419.68V424ZM139.504 424.144C138.436 424.144 137.692 423.724 137.14 422.968L137.644 422.572C138.148 423.232 138.736 423.556 139.552 423.556C140.488 423.556 141.028 423.136 141.028 422.392C141.028 421.744 140.656 421.372 139.768 421.24L139.264 421.156C138.148 420.988 137.38 420.544 137.38 419.44C137.38 418.288 138.28 417.712 139.468 417.712C140.488 417.712 141.112 418.108 141.568 418.66L141.112 419.08C140.788 418.696 140.284 418.3 139.432 418.3C138.556 418.3 138.04 418.708 138.04 419.404C138.04 420.112 138.484 420.388 139.36 420.532L139.852 420.604C141.1 420.796 141.688 421.336 141.688 422.32C141.688 423.46 140.86 424.144 139.504 424.144ZM147.323 424V423.028H147.275C147.047 423.604 146.543 424.144 145.487 424.144C144.179 424.144 143.399 423.304 143.399 421.804V417.856H144.083V421.672C144.083 422.932 144.647 423.532 145.667 423.532C146.519 423.532 147.323 423.088 147.323 422.164V417.856H148.007V424H147.323ZM150.533 424V418.456H149.477V417.856H150.533V416.14C150.533 415.516 150.845 415.12 151.493 415.12H152.573V415.72H151.217V417.856H152.573V418.456H151.217V424H150.533ZM154.236 424V418.456H153.18V417.856H154.236V416.14C154.236 415.516 154.548 415.12 155.196 415.12H156.276V415.72H154.92V417.856H158.256V424H157.572V418.456H154.92V424H154.236ZM157.92 416.188C157.584 416.188 157.452 416.008 157.452 415.756V415.636C157.452 415.384 157.584 415.204 157.92 415.204C158.244 415.204 158.388 415.384 158.388 415.636V415.756C158.388 416.008 158.244 416.188 157.92 416.188ZM162.659 424.144C160.979 424.144 160.007 422.956 160.007 420.928C160.007 418.9 160.979 417.712 162.659 417.712C163.787 417.712 164.483 418.264 164.843 419.068L164.267 419.356C163.979 418.696 163.463 418.324 162.659 418.324C161.411 418.324 160.739 419.2 160.739 420.496V421.36C160.739 422.656 161.411 423.532 162.659 423.532C163.499 423.532 164.075 423.148 164.423 422.464L164.927 422.8C164.531 423.616 163.787 424.144 162.659 424.144ZM166.788 416.188C166.464 416.188 166.32 416.008 166.32 415.756V415.636C166.32 415.384 166.464 415.204 166.788 415.204C167.112 415.204 167.256 415.384 167.256 415.636V415.756C167.256 416.008 167.112 416.188 166.788 416.188ZM166.452 424V417.856H167.136V424H166.452ZM171.566 424.144C169.922 424.144 168.878 422.944 168.878 420.928C168.878 418.912 169.922 417.712 171.554 417.712C173.126 417.712 174.146 418.936 174.146 420.736V421.06H169.598V421.36C169.598 422.644 170.342 423.544 171.602 423.544C172.478 423.544 173.126 423.112 173.462 422.308L173.966 422.644C173.582 423.544 172.73 424.144 171.566 424.144ZM171.554 418.288C170.366 418.288 169.598 419.176 169.598 420.472V420.532H173.402V420.436C173.402 419.14 172.658 418.288 171.554 418.288ZM176.57 424H175.886V417.856H176.57V418.828H176.606C176.882 418.192 177.434 417.712 178.418 417.712C179.726 417.712 180.494 418.552 180.494 420.052V424H179.81V420.172C179.81 418.924 179.258 418.324 178.238 418.324C177.374 418.324 176.57 418.768 176.57 419.68V424ZM184.927 424H183.703C183.211 424 182.947 423.7 182.947 423.244V418.456H181.879V417.856H182.575C182.911 417.856 183.007 417.736 183.007 417.388V416.14H183.631V417.856H185.023V418.456H183.631V423.4H184.927V424ZM191.783 424H190.559C190.067 424 189.803 423.7 189.803 423.244V418.456H188.735V417.856H189.431C189.767 417.856 189.863 417.736 189.863 417.388V416.14H190.487V417.856H191.879V418.456H190.487V423.4H191.783V424ZM195.671 424.144C194.027 424.144 192.983 422.944 192.983 420.928C192.983 418.912 194.027 417.712 195.659 417.712C197.231 417.712 198.251 418.936 198.251 420.736V421.06H193.703V421.36C193.703 422.644 194.447 423.544 195.707 423.544C196.583 423.544 197.231 423.112 197.567 422.308L198.071 422.644C197.687 423.544 196.835 424.144 195.671 424.144ZM195.659 418.288C194.471 418.288 193.703 419.176 193.703 420.472V420.532H197.507V420.436C197.507 419.14 196.763 418.288 195.659 418.288ZM201.731 424.144C200.663 424.144 199.919 423.724 199.367 422.968L199.871 422.572C200.375 423.232 200.963 423.556 201.779 423.556C202.715 423.556 203.255 423.136 203.255 422.392C203.255 421.744 202.883 421.372 201.995 421.24L201.491 421.156C200.375 420.988 199.607 420.544 199.607 419.44C199.607 418.288 200.507 417.712 201.695 417.712C202.715 417.712 203.339 418.108 203.795 418.66L203.339 419.08C203.015 418.696 202.511 418.3 201.659 418.3C200.783 418.3 200.267 418.708 200.267 419.404C200.267 420.112 200.711 420.388 201.587 420.532L202.079 420.604C203.327 420.796 203.915 421.336 203.915 422.32C203.915 423.46 203.087 424.144 201.731 424.144ZM207.943 424H206.719C206.227 424 205.963 423.7 205.963 423.244V418.456H204.895V417.856H205.591C205.927 417.856 206.023 417.736 206.023 417.388V416.14H206.647V417.856H208.039V418.456H206.647V423.4H207.943V424ZM213.202 424H212.518V417.856H213.202V418.96H213.25C213.49 418.384 214.03 417.856 215.086 417.856H215.494V418.528H214.954C213.934 418.528 213.202 419.008 213.202 419.8V424ZM218.968 424.144C217.324 424.144 216.28 422.944 216.28 420.928C216.28 418.912 217.324 417.712 218.956 417.712C220.528 417.712 221.548 418.936 221.548 420.736V421.06H217V421.36C217 422.644 217.744 423.544 219.004 423.544C219.88 423.544 220.528 423.112 220.864 422.308L221.368 422.644C220.984 423.544 220.132 424.144 218.968 424.144ZM218.956 418.288C217.768 418.288 217 419.176 217 420.472V420.532H220.804V420.436C220.804 419.14 220.06 418.288 218.956 418.288ZM225.028 424.144C223.96 424.144 223.216 423.724 222.664 422.968L223.168 422.572C223.672 423.232 224.26 423.556 225.076 423.556C226.012 423.556 226.552 423.136 226.552 422.392C226.552 421.744 226.18 421.372 225.292 421.24L224.788 421.156C223.672 420.988 222.904 420.544 222.904 419.44C222.904 418.288 223.804 417.712 224.992 417.712C226.012 417.712 226.636 418.108 227.092 418.66L226.636 419.08C226.312 418.696 225.808 418.3 224.956 418.3C224.08 418.3 223.564 418.708 223.564 419.404C223.564 420.112 224.008 420.388 224.884 420.532L225.376 420.604C226.624 420.796 227.212 421.336 227.212 422.32C227.212 423.46 226.384 424.144 225.028 424.144ZM232.847 424V423.028H232.799C232.571 423.604 232.067 424.144 231.011 424.144C229.703 424.144 228.923 423.304 228.923 421.804V417.856H229.607V421.672C229.607 422.932 230.171 423.532 231.191 423.532C232.043 423.532 232.847 423.088 232.847 422.164V417.856H233.531V424H232.847ZM237.4 424H236.524C236.032 424 235.768 423.7 235.768 423.256V415.12H236.452V423.4H237.4V424ZM241.154 424H239.93C239.438 424 239.174 423.7 239.174 423.244V418.456H238.106V417.856H238.802C239.138 417.856 239.234 417.736 239.234 417.388V416.14H239.858V417.856H241.25V418.456H239.858V423.4H241.154V424ZM244.633 424.144C243.565 424.144 242.821 423.724 242.269 422.968L242.773 422.572C243.277 423.232 243.865 423.556 244.681 423.556C245.617 423.556 246.157 423.136 246.157 422.392C246.157 421.744 245.785 421.372 244.897 421.24L244.393 421.156C243.277 420.988 242.509 420.544 242.509 419.44C242.509 418.288 243.409 417.712 244.597 417.712C245.617 417.712 246.241 418.108 246.697 418.66L246.241 419.08C245.917 418.696 245.413 418.3 244.561 418.3C243.685 418.3 243.169 418.708 243.169 419.404C243.169 420.112 243.613 420.388 244.489 420.532L244.981 420.604C246.229 420.796 246.817 421.336 246.817 422.32C246.817 423.46 245.989 424.144 244.633 424.144ZM249.176 424.108C248.78 424.108 248.6 423.892 248.6 423.568V423.436C248.6 423.112 248.78 422.896 249.176 422.896C249.56 422.896 249.752 423.112 249.752 423.436V423.568C249.752 423.892 249.56 424.108 249.176 424.108ZM249.176 418.96C248.78 418.96 248.6 418.744 248.6 418.42V418.288C248.6 417.964 248.78 417.748 249.176 417.748C249.56 417.748 249.752 417.964 249.752 418.288V418.42C249.752 418.744 249.56 418.96 249.176 418.96ZM254.883 424V415.624H258.159C259.467 415.624 260.259 416.416 260.259 417.736C260.259 418.9 259.599 419.416 258.975 419.56V419.608C259.755 419.704 260.583 420.328 260.583 421.636C260.583 423.016 259.743 424 258.459 424H254.883ZM255.603 419.956V423.364H258.267C259.275 423.364 259.815 422.752 259.815 421.876V421.432C259.815 420.568 259.275 419.956 258.267 419.956H255.603ZM255.603 416.26V419.332H258.087C258.999 419.332 259.491 418.78 259.491 418.024V417.568C259.491 416.8 258.999 416.26 258.087 416.26H255.603ZM263.148 424H262.464V417.856H263.148V418.96H263.196C263.436 418.384 263.976 417.856 265.032 417.856H265.44V418.528H264.9C263.88 418.528 263.148 419.008 263.148 419.8V424ZM271.649 424H270.953C270.425 424 270.209 423.7 270.173 423.244V423.028H270.113C269.837 423.712 269.213 424.144 268.253 424.144C266.969 424.144 266.225 423.472 266.225 422.332C266.225 421.24 266.945 420.556 268.721 420.556H270.137V419.836C270.137 418.828 269.609 418.312 268.565 418.312C267.749 418.312 267.221 418.672 266.885 419.308L266.453 418.948C266.789 418.24 267.473 417.712 268.589 417.712C270.017 417.712 270.821 418.468 270.821 419.764V423.4H271.649V424ZM268.349 423.556C269.345 423.556 270.137 423.04 270.137 422.212V421.072H268.697C267.473 421.072 266.945 421.492 266.945 422.176V422.464C266.945 423.172 267.509 423.556 268.349 423.556ZM273.057 424V415.12H273.741V420.988H273.777L274.737 419.968L276.777 417.856H277.617L275.205 420.352L277.881 424H277.041L274.713 420.784L273.741 421.768V424H273.057ZM281.242 424.144C279.598 424.144 278.554 422.944 278.554 420.928C278.554 418.912 279.598 417.712 281.23 417.712C282.802 417.712 283.822 418.936 283.822 420.736V421.06H279.274V421.36C279.274 422.644 280.018 423.544 281.278 423.544C282.154 423.544 282.802 423.112 283.138 422.308L283.642 422.644C283.258 423.544 282.406 424.144 281.242 424.144ZM281.23 418.288C280.042 418.288 279.274 419.176 279.274 420.472V420.532H283.078V420.436C283.078 419.14 282.334 418.288 281.23 418.288ZM287.841 424H286.617C286.125 424 285.861 423.7 285.861 423.244V418.456H284.793V417.856H285.489C285.825 417.856 285.921 417.736 285.921 417.388V416.14H286.545V417.856H287.937V418.456H286.545V423.4H287.841V424ZM290.072 422.896C290.468 422.896 290.648 423.124 290.648 423.448V423.604C290.648 424.264 290.24 425.116 289.616 425.656H289.04C289.568 425.116 289.832 424.612 289.928 424.084C289.616 424.048 289.496 423.844 289.496 423.592V423.448C289.496 423.124 289.676 422.896 290.072 422.896ZM298.485 424.144C296.421 424.144 295.221 422.668 295.221 419.836C295.221 417.016 296.421 415.48 298.485 415.48C299.817 415.48 300.753 416.164 301.257 417.268L300.669 417.616C300.297 416.704 299.541 416.128 298.485 416.128C296.925 416.128 295.989 417.304 295.989 419.368V420.316C295.989 422.368 296.925 423.496 298.485 423.496C299.601 423.496 300.369 422.884 300.729 421.924L301.317 422.272C300.825 423.412 299.841 424.144 298.485 424.144ZM303.323 416.188C302.999 416.188 302.855 416.008 302.855 415.756V415.636C302.855 415.384 302.999 415.204 303.323 415.204C303.647 415.204 303.791 415.384 303.791 415.636V415.756C303.791 416.008 303.647 416.188 303.323 416.188ZM302.987 424V417.856H303.671V424H302.987ZM306.589 424H305.905V417.856H306.589V418.96H306.637C306.877 418.384 307.417 417.856 308.473 417.856H308.881V418.528H308.341C307.321 418.528 306.589 419.008 306.589 419.8V424ZM314.119 426.4V423.016H314.083C313.759 423.7 313.147 424.144 312.211 424.144C310.639 424.144 309.679 422.956 309.679 420.928C309.679 418.9 310.639 417.712 312.211 417.712C313.147 417.712 313.783 418.156 314.083 418.84H314.119V417.856H314.803V426.4H314.119ZM312.367 423.532C313.315 423.532 314.119 422.992 314.119 422.128V419.692C314.119 418.888 313.315 418.324 312.367 418.324C311.143 418.324 310.411 419.176 310.411 420.496V421.36C310.411 422.68 311.143 423.532 312.367 423.532ZM317.482 422.896C317.878 422.896 318.058 423.124 318.058 423.448V423.604C318.058 424.264 317.65 425.116 317.026 425.656H316.45C316.978 425.116 317.242 424.612 317.338 424.084C317.026 424.048 316.906 423.844 316.906 423.592V423.448C316.906 423.124 317.086 422.896 317.482 422.896ZM325.895 424.144C323.831 424.144 322.631 422.668 322.631 419.836C322.631 417.016 323.831 415.48 325.895 415.48C327.227 415.48 328.163 416.164 328.667 417.268L328.079 417.616C327.707 416.704 326.951 416.128 325.895 416.128C324.335 416.128 323.399 417.304 323.399 419.368V420.316C323.399 422.368 324.335 423.496 325.895 423.496C327.011 423.496 327.779 422.884 328.139 421.924L328.727 422.272C328.235 423.412 327.251 424.144 325.895 424.144ZM330.397 415.624H331.117V420.796C331.117 422.656 331.645 423.496 333.289 423.496C334.921 423.496 335.461 422.656 335.461 420.796V415.624H336.181V420.64C336.181 423.1 335.413 424.144 333.265 424.144C331.117 424.144 330.397 423.1 330.397 420.64V415.624ZM338.485 424V415.624H341.149C343.297 415.624 344.533 417.028 344.533 419.812C344.533 422.596 343.297 424 341.149 424H338.485ZM339.205 423.364H341.161C342.805 423.364 343.765 422.224 343.765 420.364V419.26C343.765 417.4 342.805 416.26 341.161 416.26H339.205V423.364ZM352.301 424H351.545L350.633 421.396H347.069L346.157 424H345.437L348.401 415.624H349.325L352.301 424ZM350.441 420.772L348.869 416.308H348.821L347.249 420.772H350.441ZM362.445 424L361.353 422.86C360.945 423.472 360.129 424.144 358.809 424.144C357.225 424.144 356.301 423.184 356.301 421.9C356.301 420.616 357.189 419.992 358.137 419.5C357.501 418.804 357.105 418.204 357.105 417.436C357.105 416.32 357.933 415.48 359.217 415.48C360.405 415.48 361.197 416.212 361.197 417.232C361.197 418.36 360.297 418.984 359.109 419.596L361.281 421.852C361.533 421.228 361.653 420.46 361.677 419.668H363.177V420.268H362.241C362.169 421.036 361.989 421.72 361.713 422.308L363.333 424H362.445ZM359.181 416.056C358.341 416.056 357.789 416.62 357.789 417.34V417.508C357.789 418.072 358.185 418.612 358.725 419.2C359.697 418.72 360.525 418.144 360.525 417.388V417.232C360.525 416.488 359.901 416.056 359.181 416.056ZM357.021 421.972C357.021 422.932 357.765 423.532 358.857 423.532C359.829 423.532 360.513 423.124 360.957 422.44L358.509 419.896C357.717 420.304 357.021 420.748 357.021 421.768V421.972ZM369.931 424.144C368.563 424.144 367.675 423.58 367.027 422.716L367.567 422.272C368.155 423.052 368.863 423.508 369.955 423.508C371.251 423.508 371.971 422.86 371.971 421.756C371.971 420.724 371.347 420.328 370.279 420.1L369.535 419.944C367.951 419.62 367.255 418.864 367.255 417.7C367.255 416.236 368.335 415.48 369.943 415.48C371.191 415.48 372.043 415.96 372.595 416.764L372.055 417.16C371.587 416.5 370.915 416.116 369.907 416.116C368.707 416.116 367.963 416.644 367.963 417.676C367.963 418.672 368.635 419.056 369.679 419.272L370.423 419.428C372.091 419.788 372.679 420.568 372.679 421.72C372.679 423.244 371.635 424.144 369.931 424.144ZM376.787 424H375.563C375.071 424 374.807 423.7 374.807 423.244V418.456H373.739V417.856H374.435C374.771 417.856 374.867 417.736 374.867 417.388V416.14H375.491V417.856H376.883V418.456H375.491V423.4H376.787V424ZM383.446 424H382.75C382.222 424 382.006 423.7 381.97 423.244V423.028H381.91C381.634 423.712 381.01 424.144 380.05 424.144C378.766 424.144 378.022 423.472 378.022 422.332C378.022 421.24 378.742 420.556 380.518 420.556H381.934V419.836C381.934 418.828 381.406 418.312 380.362 418.312C379.546 418.312 379.018 418.672 378.682 419.308L378.25 418.948C378.586 418.24 379.27 417.712 380.386 417.712C381.814 417.712 382.618 418.468 382.618 419.764V423.4H383.446V424ZM380.146 423.556C381.142 423.556 381.934 423.04 381.934 422.212V421.072H380.494C379.27 421.072 378.742 421.492 378.742 422.176V422.464C378.742 423.172 379.306 423.556 380.146 423.556ZM388.826 426.4V423.016H388.79C388.466 423.7 387.854 424.144 386.918 424.144C385.346 424.144 384.386 422.956 384.386 420.928C384.386 418.9 385.346 417.712 386.918 417.712C387.854 417.712 388.49 418.156 388.79 418.84H388.826V417.856H389.51V426.4H388.826ZM387.074 423.532C388.022 423.532 388.826 422.992 388.826 422.128V419.692C388.826 418.888 388.022 418.324 387.074 418.324C385.85 418.324 385.118 419.176 385.118 420.496V421.36C385.118 422.68 385.85 423.532 387.074 423.532ZM26.576 432.26H23.768V440H23.048V432.26H20.24V431.624H26.576V432.26ZM28.2723 432.188C27.9483 432.188 27.8043 432.008 27.8043 431.756V431.636C27.8043 431.384 27.9483 431.204 28.2723 431.204C28.5963 431.204 28.7403 431.384 28.7403 431.636V431.756C28.7403 432.008 28.5963 432.188 28.2723 432.188ZM27.9363 440V433.856H28.6203V440H27.9363ZM31.5383 440H30.8543V433.856H31.5383V434.828H31.5743C31.8263 434.228 32.3063 433.712 33.3143 433.712C34.1903 433.712 34.9103 434.12 35.2103 435.008H35.2463C35.4743 434.288 36.0863 433.712 37.1783 433.712C38.4863 433.712 39.2183 434.552 39.2183 436.052V440H38.5343V436.172C38.5343 434.936 38.0183 434.324 36.9863 434.324C36.1343 434.324 35.3783 434.78 35.3783 435.692V440H34.6943V436.172C34.6943 434.924 34.1663 434.324 33.1583 434.324C32.3183 434.324 31.5383 434.768 31.5383 435.68V440ZM41.702 432.188C41.378 432.188 41.234 432.008 41.234 431.756V431.636C41.234 431.384 41.378 431.204 41.702 431.204C42.026 431.204 42.17 431.384 42.17 431.636V431.756C42.17 432.008 42.026 432.188 41.702 432.188ZM41.366 440V433.856H42.05V440H41.366ZM44.968 440H44.284V433.856H44.968V434.828H45.004C45.28 434.192 45.832 433.712 46.816 433.712C48.124 433.712 48.892 434.552 48.892 436.052V440H48.208V436.172C48.208 434.924 47.656 434.324 46.636 434.324C45.772 434.324 44.968 434.768 44.968 435.68V440ZM56.0857 440.72C56.0857 441.968 55.0537 442.544 53.1337 442.544C51.2617 442.544 50.4817 441.968 50.4817 441.008C50.4817 440.312 50.8777 439.904 51.5377 439.712V439.616C51.1537 439.46 50.9617 439.184 50.9617 438.776C50.9617 438.176 51.4177 437.876 52.0057 437.72V437.672C51.2977 437.348 50.8657 436.688 50.8657 435.8C50.8657 434.564 51.7417 433.712 53.0977 433.712C53.5777 433.712 53.9977 433.82 54.3337 434.012V433.712C54.3337 433.34 54.5017 433.088 54.8977 433.088H55.9537V433.688H54.7057V434.276C55.1137 434.648 55.3537 435.176 55.3537 435.8C55.3537 437.048 54.4657 437.9 53.1097 437.9C52.8937 437.9 52.6777 437.864 52.4737 437.828C51.9457 437.972 51.5617 438.212 51.5617 438.62C51.5617 438.98 51.8737 439.172 52.5457 439.172H53.9737C55.4497 439.172 56.0857 439.76 56.0857 440.72ZM55.4257 440.768C55.4257 440.18 55.0657 439.808 53.9737 439.808H51.9817C51.4537 439.988 51.1297 440.336 51.1297 440.864C51.1297 441.5 51.6577 441.98 52.7257 441.98H53.4937C54.6817 441.98 55.4257 441.596 55.4257 440.768ZM53.1097 437.348C54.0457 437.348 54.6217 436.856 54.6217 435.992V435.608C54.6217 434.768 54.0457 434.264 53.1097 434.264C52.1617 434.264 51.5977 434.768 51.5977 435.608V435.992C51.5977 436.856 52.1737 437.348 53.1097 437.348ZM60.9172 440H60.2332V433.856H60.9172V434.828H60.9532C61.2052 434.228 61.6852 433.712 62.6932 433.712C63.5692 433.712 64.2892 434.12 64.5892 435.008H64.6252C64.8532 434.288 65.4652 433.712 66.5572 433.712C67.8652 433.712 68.5972 434.552 68.5972 436.052V440H67.9132V436.172C67.9132 434.936 67.3972 434.324 66.3652 434.324C65.5132 434.324 64.7572 434.78 64.7572 435.692V440H64.0732V436.172C64.0732 434.924 63.5452 434.324 62.5372 434.324C61.6972 434.324 60.9172 434.768 60.9172 435.68V440ZM72.9409 440.144C71.2969 440.144 70.2529 438.944 70.2529 436.928C70.2529 434.912 71.2969 433.712 72.9289 433.712C74.5009 433.712 75.5209 434.936 75.5209 436.736V437.06H70.9729V437.36C70.9729 438.644 71.7169 439.544 72.9769 439.544C73.8529 439.544 74.5009 439.112 74.8369 438.308L75.3409 438.644C74.9569 439.544 74.1049 440.144 72.9409 440.144ZM72.9289 434.288C71.7409 434.288 70.9729 435.176 70.9729 436.472V436.532H74.7769V436.436C74.7769 435.14 74.0329 434.288 72.9289 434.288ZM82.1805 440H81.4845C80.9565 440 80.7405 439.7 80.7045 439.244V439.028H80.6445C80.3685 439.712 79.7445 440.144 78.7845 440.144C77.5005 440.144 76.7565 439.472 76.7565 438.332C76.7565 437.24 77.4765 436.556 79.2525 436.556H80.6685V435.836C80.6685 434.828 80.1405 434.312 79.0965 434.312C78.2805 434.312 77.7525 434.672 77.4165 435.308L76.9845 434.948C77.3205 434.24 78.0045 433.712 79.1205 433.712C80.5485 433.712 81.3525 434.468 81.3525 435.764V439.4H82.1805V440ZM78.8805 439.556C79.8765 439.556 80.6685 439.04 80.6685 438.212V437.072H79.2285C78.0045 437.072 77.4765 437.492 77.4765 438.176V438.464C77.4765 439.172 78.0405 439.556 78.8805 439.556ZM85.3287 440.144C84.2607 440.144 83.5167 439.724 82.9647 438.968L83.4687 438.572C83.9727 439.232 84.5607 439.556 85.3767 439.556C86.3127 439.556 86.8527 439.136 86.8527 438.392C86.8527 437.744 86.4807 437.372 85.5927 437.24L85.0887 437.156C83.9727 436.988 83.2047 436.544 83.2047 435.44C83.2047 434.288 84.1047 433.712 85.2927 433.712C86.3127 433.712 86.9367 434.108 87.3927 434.66L86.9367 435.08C86.6127 434.696 86.1087 434.3 85.2567 434.3C84.3807 434.3 83.8647 434.708 83.8647 435.404C83.8647 436.112 84.3087 436.388 85.1847 436.532L85.6767 436.604C86.9247 436.796 87.5127 437.336 87.5127 438.32C87.5127 439.46 86.6847 440.144 85.3287 440.144ZM93.1474 440V439.028H93.0994C92.8714 439.604 92.3674 440.144 91.3114 440.144C90.0034 440.144 89.2234 439.304 89.2234 437.804V433.856H89.9074V437.672C89.9074 438.932 90.4714 439.532 91.4914 439.532C92.3434 439.532 93.1474 439.088 93.1474 438.164V433.856H93.8314V440H93.1474ZM96.7531 440H96.0691V433.856H96.7531V434.96H96.8011C97.0411 434.384 97.5811 433.856 98.6371 433.856H99.0451V434.528H98.5051C97.4851 434.528 96.7531 435.008 96.7531 435.8V440ZM102.519 440.144C100.875 440.144 99.831 438.944 99.831 436.928C99.831 434.912 100.875 433.712 102.507 433.712C104.079 433.712 105.099 434.936 105.099 436.736V437.06H100.551V437.36C100.551 438.644 101.295 439.544 102.555 439.544C103.431 439.544 104.079 439.112 104.415 438.308L104.919 438.644C104.535 439.544 103.683 440.144 102.519 440.144ZM102.507 434.288C101.319 434.288 100.551 435.176 100.551 436.472V436.532H104.355V436.436C104.355 435.14 103.611 434.288 102.507 434.288ZM110.811 440V439.016H110.775C110.451 439.7 109.839 440.144 108.903 440.144C107.331 440.144 106.371 438.956 106.371 436.928C106.371 434.9 107.331 433.712 108.903 433.712C109.839 433.712 110.475 434.156 110.775 434.84H110.811V431.12H111.495V440H110.811ZM109.059 439.532C110.007 439.532 110.811 438.992 110.811 438.128V435.692C110.811 434.888 110.007 434.324 109.059 434.324C107.835 434.324 107.103 435.176 107.103 436.496V437.36C107.103 438.68 107.835 439.532 109.059 439.532ZM120.405 440V439.028H120.357C120.129 439.604 119.625 440.144 118.569 440.144C117.261 440.144 116.481 439.304 116.481 437.804V433.856H117.165V437.672C117.165 438.932 117.729 439.532 118.749 439.532C119.601 439.532 120.405 439.088 120.405 438.164V433.856H121.089V440H120.405ZM125.067 440.144C123.999 440.144 123.255 439.724 122.703 438.968L123.207 438.572C123.711 439.232 124.299 439.556 125.115 439.556C126.051 439.556 126.591 439.136 126.591 438.392C126.591 437.744 126.219 437.372 125.331 437.24L124.827 437.156C123.711 436.988 122.943 436.544 122.943 435.44C122.943 434.288 123.843 433.712 125.031 433.712C126.051 433.712 126.675 434.108 127.131 434.66L126.675 435.08C126.351 434.696 125.847 434.3 124.995 434.3C124.119 434.3 123.603 434.708 123.603 435.404C123.603 436.112 124.047 436.388 124.923 436.532L125.415 436.604C126.663 436.796 127.251 437.336 127.251 438.32C127.251 439.46 126.423 440.144 125.067 440.144ZM129.382 432.188C129.058 432.188 128.914 432.008 128.914 431.756V431.636C128.914 431.384 129.058 431.204 129.382 431.204C129.706 431.204 129.85 431.384 129.85 431.636V431.756C129.85 432.008 129.706 432.188 129.382 432.188ZM129.046 440V433.856H129.73V440H129.046ZM132.648 440H131.964V433.856H132.648V434.828H132.684C132.96 434.192 133.512 433.712 134.496 433.712C135.804 433.712 136.572 434.552 136.572 436.052V440H135.888V436.172C135.888 434.924 135.336 434.324 134.316 434.324C133.452 434.324 132.648 434.768 132.648 435.68V440ZM143.765 440.72C143.765 441.968 142.733 442.544 140.813 442.544C138.941 442.544 138.161 441.968 138.161 441.008C138.161 440.312 138.557 439.904 139.217 439.712V439.616C138.833 439.46 138.641 439.184 138.641 438.776C138.641 438.176 139.097 437.876 139.685 437.72V437.672C138.977 437.348 138.545 436.688 138.545 435.8C138.545 434.564 139.421 433.712 140.777 433.712C141.257 433.712 141.677 433.82 142.013 434.012V433.712C142.013 433.34 142.181 433.088 142.577 433.088H143.633V433.688H142.385V434.276C142.793 434.648 143.033 435.176 143.033 435.8C143.033 437.048 142.145 437.9 140.789 437.9C140.573 437.9 140.357 437.864 140.153 437.828C139.625 437.972 139.241 438.212 139.241 438.62C139.241 438.98 139.553 439.172 140.225 439.172H141.653C143.129 439.172 143.765 439.76 143.765 440.72ZM143.105 440.768C143.105 440.18 142.745 439.808 141.653 439.808H139.661C139.133 439.988 138.809 440.336 138.809 440.864C138.809 441.5 139.337 441.98 140.405 441.98H141.173C142.361 441.98 143.105 441.596 143.105 440.768ZM140.789 437.348C141.725 437.348 142.301 436.856 142.301 435.992V435.608C142.301 434.768 141.725 434.264 140.789 434.264C139.841 434.264 139.277 434.768 139.277 435.608V435.992C139.277 436.856 139.853 437.348 140.789 437.348ZM150.097 440.144C148.477 440.144 147.421 438.944 147.421 436.928C147.421 434.912 148.477 433.712 150.097 433.712C151.717 433.712 152.773 434.912 152.773 436.928C152.773 438.944 151.717 440.144 150.097 440.144ZM150.097 439.532C151.285 439.532 152.041 438.752 152.041 437.312V436.544C152.041 435.116 151.285 434.324 150.097 434.324C148.909 434.324 148.153 435.104 148.153 436.544V437.312C148.153 438.74 148.909 439.532 150.097 439.532ZM155.195 440H154.511V433.856H155.195V434.828H155.231C155.507 434.192 156.059 433.712 157.043 433.712C158.351 433.712 159.119 434.552 159.119 436.052V440H158.435V436.172C158.435 434.924 157.883 434.324 156.863 434.324C155.999 434.324 155.195 434.768 155.195 435.68V440ZM162.904 440H162.028C161.536 440 161.272 439.7 161.272 439.256V431.12H161.956V439.4H162.904V440ZM166.143 439.268L168.015 433.856H168.711L165.867 441.728C165.675 442.244 165.471 442.4 164.847 442.4H164.151V441.8H165.183L165.771 440.18L163.491 433.856H164.211L166.095 439.268H166.143ZM175.081 440.144C173.401 440.144 172.429 438.956 172.429 436.928C172.429 434.9 173.401 433.712 175.081 433.712C176.209 433.712 176.905 434.264 177.265 435.068L176.689 435.356C176.401 434.696 175.885 434.324 175.081 434.324C173.833 434.324 173.161 435.2 173.161 436.496V437.36C173.161 438.656 173.833 439.532 175.081 439.532C175.921 439.532 176.497 439.148 176.845 438.464L177.349 438.8C176.953 439.616 176.209 440.144 175.081 440.144ZM180.964 440.144C179.344 440.144 178.288 438.944 178.288 436.928C178.288 434.912 179.344 433.712 180.964 433.712C182.584 433.712 183.64 434.912 183.64 436.928C183.64 438.944 182.584 440.144 180.964 440.144ZM180.964 439.532C182.152 439.532 182.908 438.752 182.908 437.312V436.544C182.908 435.116 182.152 434.324 180.964 434.324C179.776 434.324 179.02 435.104 179.02 436.544V437.312C179.02 438.74 179.776 439.532 180.964 439.532ZM186.062 440H185.378V433.856H186.062V434.828H186.098C186.35 434.228 186.83 433.712 187.838 433.712C188.714 433.712 189.434 434.12 189.734 435.008H189.77C189.998 434.288 190.61 433.712 191.702 433.712C193.01 433.712 193.742 434.552 193.742 436.052V440H193.058V436.172C193.058 434.936 192.542 434.324 191.51 434.324C190.658 434.324 189.902 434.78 189.902 435.692V440H189.218V436.172C189.218 434.924 188.69 434.324 187.682 434.324C186.842 434.324 186.062 434.768 186.062 435.68V440ZM195.889 442.4V433.856H196.573V434.84H196.609C196.909 434.156 197.545 433.712 198.481 433.712C200.053 433.712 201.013 434.9 201.013 436.928C201.013 438.956 200.053 440.144 198.481 440.144C197.545 440.144 196.945 439.7 196.609 439.016H196.573V442.4H195.889ZM198.325 439.532C199.549 439.532 200.281 438.68 200.281 437.36V436.496C200.281 435.176 199.549 434.324 198.325 434.324C197.377 434.324 196.573 434.888 196.573 435.692V438.128C196.573 438.992 197.377 439.532 198.325 439.532ZM204.412 440H203.536C203.044 440 202.78 439.7 202.78 439.256V431.12H203.464V439.4H204.412V440ZM208.14 440.144C206.496 440.144 205.452 438.944 205.452 436.928C205.452 434.912 206.496 433.712 208.128 433.712C209.7 433.712 210.72 434.936 210.72 436.736V437.06H206.172V437.36C206.172 438.644 206.916 439.544 208.176 439.544C209.052 439.544 209.7 439.112 210.036 438.308L210.54 438.644C210.156 439.544 209.304 440.144 208.14 440.144ZM208.128 434.288C206.94 434.288 206.172 435.176 206.172 436.472V436.532H209.976V436.436C209.976 435.14 209.232 434.288 208.128 434.288ZM214.74 440H213.516C213.024 440 212.76 439.7 212.76 439.244V434.456H211.692V433.856H212.388C212.724 433.856 212.82 433.736 212.82 433.388V432.14H213.444V433.856H214.836V434.456H213.444V439.4H214.74V440ZM218.628 440.144C216.984 440.144 215.94 438.944 215.94 436.928C215.94 434.912 216.984 433.712 218.616 433.712C220.188 433.712 221.208 434.936 221.208 436.736V437.06H216.66V437.36C216.66 438.644 217.404 439.544 218.664 439.544C219.54 439.544 220.188 439.112 220.524 438.308L221.028 438.644C220.644 439.544 219.792 440.144 218.628 440.144ZM218.616 434.288C217.428 434.288 216.66 435.176 216.66 436.472V436.532H220.464V436.436C220.464 435.14 219.72 434.288 218.616 434.288ZM226.92 440V439.016H226.884C226.56 439.7 225.948 440.144 225.012 440.144C223.44 440.144 222.48 438.956 222.48 436.928C222.48 434.9 223.44 433.712 225.012 433.712C225.948 433.712 226.584 434.156 226.884 434.84H226.92V431.12H227.604V440H226.92ZM225.168 439.532C226.116 439.532 226.92 438.992 226.92 438.128V435.692C226.92 434.888 226.116 434.324 225.168 434.324C223.944 434.324 223.212 435.176 223.212 436.496V437.36C223.212 438.68 223.944 439.532 225.168 439.532ZM234.955 440H233.731C233.239 440 232.975 439.7 232.975 439.244V434.456H231.907V433.856H232.603C232.939 433.856 233.035 433.736 233.035 433.388V432.14H233.659V433.856H235.051V434.456H233.659V439.4H234.955V440ZM238.843 440.144C237.199 440.144 236.155 438.944 236.155 436.928C236.155 434.912 237.199 433.712 238.831 433.712C240.403 433.712 241.423 434.936 241.423 436.736V437.06H236.875V437.36C236.875 438.644 237.619 439.544 238.879 439.544C239.755 439.544 240.403 439.112 240.739 438.308L241.243 438.644C240.859 439.544 240.007 440.144 238.843 440.144ZM238.831 434.288C237.643 434.288 236.875 435.176 236.875 436.472V436.532H240.679V436.436C240.679 435.14 239.935 434.288 238.831 434.288ZM244.903 440.144C243.835 440.144 243.091 439.724 242.539 438.968L243.043 438.572C243.547 439.232 244.135 439.556 244.951 439.556C245.887 439.556 246.427 439.136 246.427 438.392C246.427 437.744 246.055 437.372 245.167 437.24L244.663 437.156C243.547 436.988 242.779 436.544 242.779 435.44C242.779 434.288 243.679 433.712 244.867 433.712C245.887 433.712 246.511 434.108 246.967 434.66L246.511 435.08C246.187 434.696 245.683 434.3 244.831 434.3C243.955 434.3 243.439 434.708 243.439 435.404C243.439 436.112 243.883 436.388 244.759 436.532L245.251 436.604C246.499 436.796 247.087 437.336 247.087 438.32C247.087 439.46 246.259 440.144 244.903 440.144ZM251.115 440H249.891C249.399 440 249.135 439.7 249.135 439.244V434.456H248.067V433.856H248.763C249.099 433.856 249.195 433.736 249.195 433.388V432.14H249.819V433.856H251.211V434.456H249.819V439.4H251.115V440ZM254.594 440.144C253.526 440.144 252.782 439.724 252.23 438.968L252.734 438.572C253.238 439.232 253.826 439.556 254.642 439.556C255.578 439.556 256.118 439.136 256.118 438.392C256.118 437.744 255.746 437.372 254.858 437.24L254.354 437.156C253.238 436.988 252.47 436.544 252.47 435.44C252.47 434.288 253.37 433.712 254.558 433.712C255.578 433.712 256.202 434.108 256.658 434.66L256.202 435.08C255.878 434.696 255.374 434.3 254.522 434.3C253.646 434.3 253.13 434.708 253.13 435.404C253.13 436.112 253.574 436.388 254.45 436.532L254.942 436.604C256.19 436.796 256.778 437.336 256.778 438.32C256.778 439.46 255.95 440.144 254.594 440.144Z" fill="#121619"/>
<circle cx="650.052" cy="220.635" r="141.358" fill="#C6C6C6"/>
<rect x="639.602" y="72.127" width="20.5525" height="8.221" fill="#4D5358"/>
<rect x="634.071" y="55" width="31.8564" height="17.1271" rx="1.37017" fill="black"/>
<rect x="747.357" y="107.591" width="20.5525" height="8.221" transform="rotate(45 747.357 107.591)" fill="#4D5358"/>
<rect x="755.556" y="91.5696" width="31.8564" height="17.1271" rx="1.37017" transform="rotate(45 755.556 91.5696)" fill="black"/>
<path fill-rule="evenodd" clip-rule="evenodd" d="M650.051 96.4089C581.443 96.4089 525.825 152.027 525.825 220.635C525.825 289.243 581.443 344.862 650.051 344.862C718.66 344.862 774.278 289.243 774.278 220.635C774.278 152.027 718.66 96.4089 650.051 96.4089ZM508.693 220.635C508.693 142.565 571.981 79.2769 650.051 79.2769C728.121 79.2769 791.41 142.565 791.41 220.635C791.41 298.705 728.121 361.994 650.051 361.994C571.981 361.994 508.693 298.705 508.693 220.635Z" fill="black"/>
<path d="M639.979 299.574H636.148V309.851H634.767V299.574H630.936V298.374H639.979V299.574ZM648.276 309.851L644.806 304.227L643.162 306.168V309.851H641.781V298.374H643.162V304.359H643.211L644.724 302.452L648.111 298.374H649.772L645.743 303.208L649.887 309.851H648.276ZM658.792 309.851H651.722V298.374H658.792V299.574H653.103V303.438H658.595V304.638H653.103V308.65H658.792V309.851ZM669.555 299.574H665.724V309.851H664.343V299.574H660.512V298.374H669.555V299.574Z" fill="black"/>
<path d="M601.637 231.535V234.144H578.858V231.083L591.251 219.343C594.663 216.132 596.921 212.87 596.921 209.208V208.255C596.921 203.94 594.412 201.13 589.646 201.13C584.979 201.13 582.571 203.639 581.367 207.502L578.708 206.549C580.012 202.284 583.223 198.521 589.696 198.521C596.369 198.521 600.082 202.535 600.082 208.505C600.082 213.473 597.372 217.286 593.057 221.249L582.019 231.535H601.637ZM617.271 234.144H614.01L628.309 201.732H611.301V208.957H608.591V199.123H631.37V201.782L617.271 234.144ZM640.632 234.144V197.016H643.492V212.268H643.693C644.696 209.86 646.904 207.652 651.269 207.652C656.838 207.652 660.15 211.165 660.15 217.436V234.144H657.29V217.938C657.29 212.62 654.881 210.211 650.516 210.211C646.954 210.211 643.492 212.018 643.492 215.931V234.144H640.632ZM669.161 234.144V231.685H677.289V210.713H669.161V208.255H680.149V214.175H680.35C681.403 211.014 683.661 208.255 688.779 208.255H693.244V211.064H687.926C683.26 211.064 680.149 214.075 680.149 218.741V231.685H688.779V234.144H669.161ZM710.936 234.746C705.718 234.746 701.904 232.889 699.145 229.678L701.102 227.973C703.661 230.883 706.671 232.338 710.986 232.338C715.501 232.338 718.662 230.632 718.662 227.019C718.662 223.858 716.254 223.005 713.093 222.554L709.079 222.002C705.015 221.4 700.5 220.296 700.5 215.078C700.5 209.96 704.815 207.652 710.484 207.652C715.301 207.652 718.512 209.409 720.77 211.767L718.863 213.573C717.458 211.917 715.05 210.061 710.334 210.061C705.968 210.061 703.359 211.666 703.359 214.877C703.359 218.038 705.768 218.891 708.879 219.343L712.943 219.945C717.007 220.547 721.472 221.651 721.472 226.869C721.472 232.037 717.157 234.746 710.936 234.746Z" fill="#121619"/>
<circle cx="278.359" cy="220.642" r="141.358" fill="#BE95FF"/>
<path d="M278.666 150.885C239.971 150.885 208.602 182.254 208.602 220.949C208.602 259.645 239.971 291.014 278.666 291.014C287.433 291.014 295.823 289.404 303.558 286.464" stroke="white" stroke-width="140.129"/>
<path d="M253.621 288.183C289.381 301.936 329.519 284.095 343.271 248.335C357.024 212.575 339.183 172.437 303.423 158.684C299.386 157.132 295.294 155.982 291.19 155.215" stroke="white" stroke-width="138.745"/>
<rect x="267.911" y="72.1331" width="20.5525" height="8.221" fill="#A56EFF"/>
<rect x="262.38" y="55.0061" width="31.8564" height="17.1271" rx="1.37017" fill="#8A3FFC"/>
<rect x="375.665" y="107.598" width="20.5525" height="8.221" transform="rotate(45 375.665 107.598)" fill="#A56EFF"/>
<rect x="383.864" y="91.5759" width="31.8564" height="17.1271" rx="1.37017" transform="rotate(45 383.864 91.5759)" fill="#8A3FFC"/>
<path fill-rule="evenodd" clip-rule="evenodd" d="M278.359 96.4152C209.751 96.4152 154.133 152.033 154.133 220.642C154.133 289.25 209.751 344.868 278.359 344.868C346.968 344.868 402.586 289.25 402.586 220.642C402.586 152.033 346.968 96.4152 278.359 96.4152ZM137.001 220.642C137.001 142.571 200.289 79.2832 278.359 79.2832C356.429 79.2832 419.718 142.571 419.718 220.642C419.718 298.712 356.429 362 278.359 362C200.289 362 137.001 298.712 137.001 220.642Z" fill="#8A3FFC"/>
<path d="M257.047 311.436V312.554H255.123C253.841 312.554 253.249 311.748 253.249 310.614V310.005C250.914 309.693 249.895 307.556 249.895 304.119C249.895 300.37 251.111 298.184 253.907 298.184C256.702 298.184 257.918 300.37 257.918 304.119C257.918 307.556 256.883 309.693 254.564 310.005V311.436H257.047ZM253.907 308.854C255.732 308.854 256.455 307.358 256.455 305.056V303.182C256.455 300.88 255.732 299.384 253.907 299.384C252.081 299.384 251.358 300.88 251.358 303.182V305.056C251.358 307.358 252.081 308.854 253.907 308.854ZM267.317 309.857H260.214V308.756H263.075V299.483H260.214V298.381H267.317V299.483H264.456V308.756H267.317V309.857ZM273.591 310.055C271.536 310.055 270.286 309.216 269.431 308.032L270.434 307.21C271.322 308.328 272.259 308.871 273.641 308.871C275.301 308.871 276.205 308.065 276.205 306.684C276.205 305.566 275.63 304.974 274.068 304.711L272.786 304.497C270.533 304.119 269.826 302.82 269.826 301.373C269.826 299.269 271.322 298.184 273.657 298.184C275.482 298.184 276.732 298.841 277.504 299.943L276.534 300.781C275.893 299.943 275.071 299.367 273.641 299.367C272.095 299.367 271.224 300.042 271.224 301.34C271.224 302.36 271.75 303.018 273.377 303.297L274.611 303.511C276.863 303.905 277.603 305.155 277.603 306.651C277.603 308.772 276.14 310.055 273.591 310.055ZM286.442 309.857L282.973 304.234L281.329 306.174V309.857H279.948V298.381H281.329V304.366H281.378L282.891 302.459L286.278 298.381H287.939L283.91 303.215L288.054 309.857H286.442ZM296.893 309.857H289.79V308.756H292.651V299.483H289.79V298.381H296.893V299.483H294.032V308.756H296.893V309.857ZM307.722 299.581H303.891V309.857H302.51V299.581H298.679V298.381H307.722V299.581Z" fill="black"/>
<path d="M228.038 199.13V201.739H212.183L211.08 216.44L211.381 216.49C213.187 214.031 215.394 212.777 219.107 212.777C225.329 212.777 229.493 216.791 229.493 223.464C229.493 230.237 225.178 234.753 218.154 234.753C212.635 234.753 209.374 232.294 207.166 229.033L209.474 227.327C211.431 230.337 213.789 232.144 218.204 232.144C223.422 232.144 226.382 228.933 226.382 224.116V223.313C226.382 218.446 223.522 215.336 218.304 215.336C214.592 215.336 212.836 216.59 211.08 218.547L208.471 218.145L209.725 199.13H228.038ZM239.157 234.151H236.498V208.261H239.157V211.272H239.307C240.11 209.265 241.565 207.659 244.425 207.659C247.335 207.659 248.941 209.215 249.342 211.723H249.442C250.345 209.415 252.001 207.659 255.062 207.659C259.025 207.659 260.43 210.419 260.43 215.386V234.151H257.771V215.837C257.771 211.623 256.667 210.068 254.108 210.068C251.7 210.068 249.794 211.723 249.794 215.035V234.151H247.134V215.837C247.134 211.623 246.031 210.068 243.472 210.068C241.063 210.068 239.157 211.723 239.157 215.035V234.151ZM280.129 201.337C278.322 201.337 277.62 200.485 277.62 199.331V198.678C277.62 197.524 278.322 196.671 280.129 196.671C281.935 196.671 282.637 197.524 282.637 198.678V199.331C282.637 200.485 281.935 201.337 280.129 201.337ZM268.99 234.151V231.692H278.724V210.72H268.99V208.261H281.584V231.692H290.665V234.151H268.99ZM301.884 234.151H299.024V208.261H301.884V212.275H302.085C303.088 209.867 305.296 207.659 309.661 207.659C315.23 207.659 318.541 211.171 318.541 217.443V234.151H315.682V217.945C315.682 212.626 313.273 210.218 308.908 210.218C305.346 210.218 301.884 212.024 301.884 215.938V234.151ZM339.243 234.753C334.025 234.753 330.212 232.896 327.453 229.685L329.409 227.979C331.968 230.889 334.979 232.344 339.294 232.344C343.809 232.344 346.97 230.639 346.97 227.026C346.97 223.865 344.562 223.012 341.401 222.561L337.387 222.009C333.323 221.407 328.807 220.303 328.807 215.085C328.807 209.967 333.122 207.659 338.792 207.659C343.608 207.659 346.819 209.415 349.077 211.773L347.171 213.58C345.766 211.924 343.358 210.068 338.641 210.068C334.276 210.068 331.667 211.673 331.667 214.884C331.667 218.045 334.076 218.898 337.186 219.35L341.25 219.952C345.314 220.554 349.78 221.658 349.78 226.876C349.78 232.043 345.465 234.753 339.243 234.753Z" fill="#121619"/>
</svg>
