<svg width="320" height="242" viewBox="0 0 320 242" fill="none" xmlns="http://www.w3.org/2000/svg">
<rect width="320" height="242" fill="#343A3F"/>
<g clip-path="url(#clip0_5412_80797)">
<path d="M144.779 108.281V143.677C144.779 144.401 145.366 144.988 146.089 144.988H172.293C173.017 144.988 173.603 144.401 173.603 143.677V108.281C173.603 107.557 173.017 106.97 172.293 106.97H146.089C145.366 106.97 144.779 107.557 144.779 108.281Z" fill="#878D96"/>
<path d="M160.502 138.434H152.641V160.72H160.502V138.434Z" fill="url(#paint0_linear_5412_80797)"/>
<path d="M164.431 158.098H148.709C147.985 158.098 147.398 158.685 147.398 159.409C147.398 160.133 147.985 160.72 148.709 160.72H164.431C165.154 160.72 165.741 160.133 165.741 159.409C165.741 158.685 165.154 158.098 164.431 158.098Z" fill="#21272A"/>
<path d="M142.158 108.281V143.677C142.158 144.401 142.745 144.988 143.468 144.988H169.672C170.396 144.988 170.982 144.401 170.982 143.677V108.281C170.982 107.557 170.396 106.97 169.672 106.97H143.468C142.745 106.97 142.158 107.557 142.158 108.281Z" fill="#697077"/>
<path d="M144.779 109.589V142.363H168.363V109.589H144.779Z" fill="#343A3F"/>
<path d="M131.677 121.391H96.3024C95.5788 121.391 94.9922 121.978 94.9922 122.702V148.921C94.9922 149.645 95.5788 150.232 96.3024 150.232H131.677C132.401 150.232 132.988 149.645 132.988 148.921V122.702C132.988 121.978 132.401 121.391 131.677 121.391Z" fill="#878D96"/>
<path d="M129.056 121.391H93.6813C92.9577 121.391 92.3711 121.978 92.3711 122.702V148.921C92.3711 149.645 92.9577 150.232 93.6813 150.232H129.056C129.78 150.232 130.366 149.645 130.366 148.921V122.702C130.366 121.978 129.78 121.391 129.056 121.391Z" fill="#697077"/>
<path d="M127.747 124.012H94.9922V147.609H127.747V124.012Z" fill="#343A3F"/>
<path d="M115.955 150.23H108.094V160.718H115.955V150.23Z" fill="url(#paint1_linear_5412_80797)"/>
<path d="M119.886 158.098H104.164C103.44 158.098 102.854 158.685 102.854 159.409C102.854 160.133 103.44 160.72 104.164 160.72H119.886C120.61 160.72 121.196 160.133 121.196 159.409C121.196 158.685 120.61 158.098 119.886 158.098Z" fill="#21272A"/>
<path d="M127.747 124.012H94.9922V125.323H127.747V124.012Z" fill="#21272A"/>
<path d="M101.543 126.633H96.3027V127.944H101.543V126.633Z" fill="#4D5358"/>
<path d="M126.437 127.945H96.3027V147.61H126.437V127.945Z" fill="#4D5358"/>
<path d="M101.544 129.254H97.6133V130.565H101.544V129.254Z" fill="#343A3F"/>
<path d="M101.544 137.121H97.6133V138.432H101.544V137.121Z" fill="#343A3F"/>
<path d="M125.127 129.254H102.854V135.809H125.127V129.254Z" fill="#21272A"/>
<path d="M125.127 137.121H102.854V147.609H125.127V137.121Z" fill="#21272A"/>
<path d="M104.164 130.567L108.095 130.527" stroke="#F4F4F4" stroke-width="0.25" stroke-miterlimit="10"/>
<path d="M104.164 131.879L115.956 131.84" stroke="#F4F4F4" stroke-width="0.25" stroke-miterlimit="10"/>
<path d="M104.164 133.188L121.196 133.148" stroke="#F4F4F4" stroke-width="0.25" stroke-miterlimit="10"/>
<path d="M106.783 134.5L118.575 134.461" stroke="#F4F4F4" stroke-width="0.25" stroke-miterlimit="10"/>
<path d="M104.164 139.742L123.817 139.703" stroke="#4D5358" stroke-width="0.25" stroke-miterlimit="10"/>
<path d="M104.164 142.364L123.817 142.324" stroke="#4D5358" stroke-width="0.25" stroke-miterlimit="10"/>
<path d="M104.164 144.985L123.817 144.945" stroke="#4D5358" stroke-width="0.25" stroke-miterlimit="10"/>
<path d="M113.336 141.668H112.025V142.979H113.336V141.668Z" fill="#A56EFF"/>
<path d="M110.714 141.668H109.404V142.979H110.714V141.668Z" fill="#A56EFF"/>
<path d="M110.714 144.289H109.404V145.6H110.714V144.289Z" fill="#A56EFF"/>
<path d="M117.266 142.992H118.576V141.681H117.266V142.992Z" fill="#A56EFF"/>
<path d="M105.475 142.992H106.785V141.681H105.475V142.992Z" fill="#A56EFF"/>
<path d="M117.266 140.398H118.576V139.087H117.266V140.398Z" fill="#A56EFF"/>
<path d="M115.301 139.742V144.986" stroke="#4D5358" stroke-width="0.25" stroke-miterlimit="10"/>
<path d="M115.302 142.979C115.663 142.979 115.957 142.685 115.957 142.323C115.957 141.961 115.663 141.668 115.302 141.668C114.94 141.668 114.646 141.961 114.646 142.323C114.646 142.685 114.94 142.979 115.302 142.979Z" fill="#FF7EB6"/>
<path d="M115.302 140.358C115.663 140.358 115.957 140.064 115.957 139.702C115.957 139.34 115.663 139.047 115.302 139.047C114.94 139.047 114.646 139.34 114.646 139.702C114.646 140.064 114.94 140.358 115.302 140.358Z" fill="#FF7EB6"/>
<path d="M106.785 139.047H105.475V140.358H106.785V139.047Z" fill="#A56EFF"/>
<path d="M197.905 160.719H239.83C240.554 160.719 241.141 160.132 241.141 159.408C241.141 158.684 240.554 158.097 239.83 158.097H197.905C197.181 158.097 196.594 158.684 196.594 159.408C196.594 160.132 197.181 160.719 197.905 160.719Z" fill="#21272A"/>
<path d="M197.905 160.719H214.938C215.661 160.719 216.248 160.132 216.248 159.408C216.248 158.684 215.661 158.097 214.938 158.097H197.905C197.182 158.097 196.595 158.684 196.595 159.408C196.595 160.132 197.182 160.719 197.905 160.719Z" fill="#121619"/>
<path d="M219.288 139.742H193.32C192.416 139.742 191.747 140.607 191.983 141.486L196.163 157.073C196.32 157.676 196.87 158.096 197.499 158.096H223.467C224.371 158.096 225.039 157.231 224.803 156.352L220.624 140.765C220.467 140.162 219.916 139.742 219.288 139.742Z" fill="#121619"/>
<path d="M217.572 142.367H195.299L198.81 155.477H221.083L217.572 142.367Z" fill="#343A3F"/>
<path d="M195.639 143.678H217.913L217.572 142.367H195.299L195.639 143.678Z" fill="#21272A"/>
<path d="M200.119 155.478H219.772L217.309 146.301H197.656L200.119 155.478Z" fill="#4D5358"/>
<path d="M197.303 144.988H201.233L201.587 146.299H197.656L197.303 144.988Z" fill="#4D5358"/>
<path d="M205.348 155.475H218.45L216.354 147.609H203.252L205.348 155.475Z" fill="#21272A"/>
<path d="M199.674 148.92H202.294L201.941 147.609H199.32L199.674 148.92Z" fill="#343A3F"/>
<path d="M213.078 149.577H205.217L205.047 148.922H212.908L213.078 149.577Z" fill="#A56EFF"/>
<path d="M215.699 149.577H214.389L214.219 148.922H215.529L215.699 149.577Z" fill="#A56EFF"/>
<path d="M214.389 149.577H213.079L212.908 148.922H214.218L214.389 149.577Z" fill="#FF7EB6"/>
<path d="M206.881 150.89H205.571L205.4 150.234H206.711L206.881 150.89Z" fill="#A56EFF"/>
<path d="M216.053 150.89H209.502L209.332 150.234H215.883L216.053 150.89Z" fill="#A56EFF"/>
<path d="M209.502 150.89H206.881L206.711 150.234H209.331L209.502 150.89Z" fill="#FF7EB6"/>
<path d="M211.165 152.198H205.924L205.754 151.543H210.995L211.165 152.198Z" fill="#A56EFF"/>
<path d="M216.406 152.198H213.786L213.615 151.543H216.236L216.406 152.198Z" fill="#A56EFF"/>
<path d="M213.785 152.198H211.164L210.994 151.543H213.615L213.785 152.198Z" fill="#FF7EB6"/>
<path d="M208.899 153.511H206.279L206.096 152.855H208.716L208.899 153.511Z" fill="#A56EFF"/>
<path d="M216.759 153.511H215.449L215.266 152.855H216.576L216.759 153.511Z" fill="#A56EFF"/>
<path d="M215.449 153.511H208.898L208.715 152.855H215.266L215.449 153.511Z" fill="#FF7EB6"/>
<path d="M211.873 154.82H206.633L206.449 154.164H211.69L211.873 154.82Z" fill="#A56EFF"/>
<path d="M217.113 154.82H215.803L215.619 154.164H216.929L217.113 154.82Z" fill="#A56EFF"/>
<path d="M215.803 154.82H211.873L211.689 154.164H215.62L215.803 154.82Z" fill="#FF7EB6"/>
<path d="M168.361 109.59H144.777V110.901H168.361V109.59Z" fill="#21272A"/>
<path d="M151.329 113.523H146.088V114.834H151.329V113.523Z" fill="#4D5358"/>
<path d="M167.051 114.836H146.088V142.366H167.051V114.836Z" fill="#4D5358"/>
<path d="M165.741 116.145H147.398V142.364H165.741V116.145Z" fill="#21272A"/>
<path d="M148.709 117.457H164.431" stroke="#F4F4F4" stroke-width="0.25" stroke-miterlimit="10"/>
<path d="M148.709 118.766H161.811" stroke="#F4F4F4" stroke-width="0.25" stroke-miterlimit="10"/>
<path d="M148.709 121.387H161.811" stroke="#F4F4F4" stroke-width="0.25" stroke-miterlimit="10"/>
<path d="M151.33 120.078H156.571" stroke="#F4F4F4" stroke-width="0.25" stroke-miterlimit="10"/>
<path d="M148.709 124.008H164.431" stroke="#F4F4F4" stroke-width="0.25" stroke-miterlimit="10"/>
<path d="M148.709 122.699H164.431" stroke="#F4F4F4" stroke-width="0.25" stroke-miterlimit="10"/>
<path d="M151.33 126.633H156.571" stroke="#F4F4F4" stroke-width="0.25" stroke-miterlimit="10"/>
<path d="M151.33 125.32H161.812" stroke="#F4F4F4" stroke-width="0.25" stroke-miterlimit="10"/>
<path d="M151.33 129.254H161.812" stroke="#F4F4F4" stroke-width="0.25" stroke-miterlimit="10"/>
<path d="M148.709 127.941H161.811" stroke="#F4F4F4" stroke-width="0.25" stroke-miterlimit="10"/>
<path d="M153.949 131.875H161.81" stroke="#F4F4F4" stroke-width="0.25" stroke-miterlimit="10"/>
<path d="M151.33 130.562H161.812" stroke="#F4F4F4" stroke-width="0.25" stroke-miterlimit="10"/>
<path d="M148.709 134.496H159.19" stroke="#F4F4F4" stroke-width="0.25" stroke-miterlimit="10"/>
<path d="M153.949 133.188H159.19" stroke="#F4F4F4" stroke-width="0.25" stroke-miterlimit="10"/>
<path d="M148.709 137.121H151.329" stroke="#F4F4F4" stroke-width="0.25" stroke-miterlimit="10"/>
<path d="M148.709 135.809H151.329" stroke="#F4F4F4" stroke-width="0.25" stroke-miterlimit="10"/>
<path d="M151.33 139.742H156.571" stroke="#F4F4F4" stroke-width="0.25" stroke-miterlimit="10"/>
<path d="M151.33 138.43H161.812" stroke="#F4F4F4" stroke-width="0.25" stroke-miterlimit="10"/>
<path d="M148.709 141.051H153.95" stroke="#F4F4F4" stroke-width="0.25" stroke-miterlimit="10"/>
<path d="M98.9219 160.719H113.334V158.097H98.9219V160.719Z" fill="#DDE1E6"/>
<path d="M107.045 160.72L113.426 158.098V160.72H107.045Z" fill="#F4F4F4"/>
<path d="M299.38 160.719H21.6211V165.963H299.38V160.719Z" fill="#8F8B8B"/>
<path d="M299.38 165.961H21.6211V171.205H299.38V165.961Z" fill="#21272A"/>
<path d="M24.2415 171.207H21.6211V236.756H24.2415V171.207Z" fill="#21272A"/>
<path d="M21.6204 241.998C23.0676 241.998 24.2407 240.824 24.2407 239.376C24.2407 237.928 23.0676 236.754 21.6204 236.754C20.1732 236.754 19 237.928 19 239.376C19 240.824 20.1732 241.998 21.6204 241.998Z" fill="#21272A"/>
<path d="M296.76 236.754H299.381V171.205H296.76V236.754Z" fill="#21272A"/>
<path d="M299.38 241.998C300.827 241.998 302.001 240.824 302.001 239.376C302.001 237.928 300.827 236.754 299.38 236.754C297.933 236.754 296.76 237.928 296.76 239.376C296.76 240.824 297.933 241.998 299.38 241.998Z" fill="#21272A"/>
<path d="M296.759 218.402H24.2402V221.024H296.759V218.402Z" fill="#697077"/>
<path d="M75.5222 223.557C72.1026 224.055 69.6918 223.072 68.041 221.316L68.7354 218.851L70.8841 211.273L75.9152 212.702L73.7796 220.267C73.4259 221.538 74.5395 222.653 75.5222 223.557Z" fill="url(#paint2_linear_5412_80797)"/>
<path d="M78.6402 225.879C77.6183 225.144 76.4522 224.41 75.522 223.558C72.1024 224.056 69.6916 223.073 68.0408 221.316L66.5996 226.416L77.972 229.628C79.649 230.1 81.182 227.688 78.6402 225.879Z" fill="#121619"/>
<path d="M80.487 224.958C79.5044 224.053 78.3907 222.926 78.7445 221.667L73.7003 220.238L73.0059 222.703C74.6567 224.46 77.0674 225.443 80.487 224.945V224.958Z" fill="#B28062"/>
<path d="M83.6051 227.293C82.5831 226.559 81.417 225.824 80.4868 224.972C77.0672 225.47 74.6565 224.487 73.0057 222.73L71.5645 227.83L82.9369 231.042C84.6139 231.514 86.1468 229.102 83.6051 227.293Z" fill="#121619"/>
<path d="M80.8789 214.103L75.8359 212.676L73.6968 220.245L78.7398 221.672L80.8789 214.103Z" fill="#B28062"/>
<path d="M102.458 158.585L101.908 159.856C101.685 160.381 101.174 160.722 100.597 160.722H98.9204H93.6797L96.3001 156.789L99.6148 155.687C100.008 155.556 100.44 155.583 100.807 155.766L103.493 157.116C103.873 157.313 104.056 157.746 103.912 158.152L103.152 160.341C103.087 160.551 102.851 160.656 102.641 160.577H102.615C101.999 160.315 101.698 159.607 101.973 159.004L102.301 158.257" fill="#B28062"/>
<path d="M79.2685 158.101L76.6481 171.211H50.7065C48.8591 167.828 48.2957 163.895 49.1605 160.133L54.3881 137.125L61.2535 135.945H68.4071L79.2685 158.101Z" fill="url(#paint3_linear_5412_80797)"/>
<path d="M96.3009 156.787L93.6805 165.963L77.3949 162.345C72.8748 161.336 69.2194 158.019 67.7782 153.614L61.9609 135.824L68.787 134.5L72.6783 136.834C74.3946 137.869 75.7048 139.455 76.3861 141.33L80.5656 152.841L96.2878 156.773L96.3009 156.787Z" fill="#E0E0E0"/>
<path d="M68.7876 218.402V184.317H61.7126C56.3015 184.317 51.7552 180.266 51.1394 174.891L50.707 171.207H76.6487L85.2042 173.134C89.4492 174.091 92.633 177.618 93.157 181.944L97.533 218.402H68.8007H68.7876Z" fill="#0F62FE"/>
<path d="M68.0928 132.01C71.7252 132.01 74.6699 129.063 74.6699 125.429C74.6699 121.794 71.7252 118.848 68.0928 118.848C64.4603 118.848 61.5156 121.794 61.5156 125.429C61.5156 129.063 64.4603 132.01 68.0928 132.01Z" fill="#B28062"/>
<path d="M74.5788 126.52C74.2906 128.145 74.2644 128.748 74.3823 129.089C74.5002 129.43 74.2644 129.902 73.963 129.954C73.4259 130.072 73.1114 130.898 73.1114 130.898L72.4563 132.589C72.1943 133.271 71.4999 133.691 70.7662 133.599L70.1373 133.52C69.4953 133.441 68.8926 133.874 68.7747 134.503L68.4078 136.313H61.3066L61.9486 131.029C62.0534 130.138 62.0403 129.246 61.8962 128.355L61.5949 126.546" fill="#B28062"/>
<path d="M70.4149 128.052C70.7401 127.247 70.498 126.389 69.8741 126.137C69.2501 125.885 68.4806 126.333 68.1554 127.139C67.8301 127.945 68.0722 128.802 68.6962 129.054C69.3201 129.307 70.0896 128.858 70.4149 128.052Z" fill="#93633F"/>
<path d="M76.2298 119.989C76.6884 119.517 76.9767 118.875 76.9767 118.154C76.9767 116.725 75.8106 115.558 74.3694 115.558C73.3343 115.453 72.9413 115.204 72.3124 114.313H72.2993C71.8538 113.5 71.0153 112.949 70.0196 112.949C69.4169 112.949 68.8535 113.172 68.4211 113.513H68.408C67.6612 114.064 66.5738 113.959 65.9973 113.696C65.6567 113.539 65.2898 113.434 64.8836 113.434C63.6652 113.434 62.6563 114.273 62.3681 115.401C62.1192 116.607 60.8352 116.751 60.7697 116.764C59.4857 116.935 58.4899 118.023 58.4899 119.347C58.4899 119.425 58.503 119.491 58.5161 119.57H58.503C58.6865 120.959 57.6383 121.864 57.6383 121.864C57.0356 122.362 56.6426 123.083 56.6426 123.922C56.6426 124.656 56.957 125.312 57.4549 125.784C57.979 126.216 58.2803 127.226 58.0969 127.881C58.0445 128.091 58.0052 128.314 58.0052 128.537C58.0052 129.966 59.1712 131.132 60.5993 131.132C60.8876 131.132 61.1627 131.08 61.4117 130.988C62.4598 130.7 63.3507 131.25 63.7045 131.565C64.1761 131.998 64.7919 132.273 65.4863 132.273C66.4821 132.273 67.3337 131.696 67.7792 130.87H67.7923C68.3556 129.625 69.9148 129.494 69.9148 129.494C71.1856 129.31 72.1683 128.235 72.1683 126.924C72.2076 125.692 73.2557 125.666 73.7405 125.482C74.7624 125.115 75.4961 124.158 75.4961 123.018C75.4961 122.808 75.4568 122.598 75.4044 122.401C75.1424 121.038 76.0333 120.16 76.1905 120.028C76.1905 120.028 76.2036 120.028 76.2167 120.015L76.2298 119.989Z" fill="#121619"/>
<path d="M68.7875 134.5H51.7027C50.2877 134.5 49.1348 135.654 49.1348 137.07V138.394C49.1348 141.081 50.5891 143.546 52.9212 144.857C54.6899 145.84 56.7731 146.063 58.6991 145.473L63.5599 143.978C66.665 143.021 68.7875 140.15 68.7875 136.899V134.5Z" fill="url(#paint4_linear_5412_80797)"/>
<path d="M245.321 122.334C248.954 122.334 251.898 119.388 251.898 115.753C251.898 112.118 248.954 109.172 245.321 109.172C241.689 109.172 238.744 112.118 238.744 115.753C238.744 119.388 241.689 122.334 245.321 122.334Z" fill="#F8D6CC"/>
<path d="M248.937 121.666C248.269 122.453 247.902 123.462 247.915 124.498V125.39H241.194V123.698C241.194 123.004 240.762 122.387 240.107 122.151L237.853 121.339C237.237 121.103 236.897 120.447 237.054 119.805C237.277 118.887 237.512 117.838 237.552 117.629C237.604 117.419 237.552 117.235 237.499 117.117C237.447 116.999 237.408 116.934 237.303 116.737C237.198 116.54 237.106 116.226 237.381 116.055C237.67 115.872 238.429 114.862 238.77 114.207C238.94 113.84 239.032 113.669 239.294 113.066L250.326 120.015L248.937 121.666Z" fill="#F8D6CC"/>
<path d="M261.383 143.676L262.051 145.092C262.837 146.757 262.117 148.749 260.453 149.523L256.142 151.542L252.657 150.231L251.557 143.676H261.383Z" fill="#F8D6CC"/>
<path d="M255.711 131.617L261.385 143.678L253.523 146.3L255.711 131.617Z" fill="#0043CE"/>
<path d="M257.453 160.719L262.694 234.133H249.592L244.352 173.829L257.453 160.719Z" fill="url(#paint5_linear_5412_80797)"/>
<path d="M236.49 139.744L233.215 152.867C232.783 154.585 232.783 156.381 233.215 158.098L233.87 160.733H257.453L258.043 158.386C258.528 156.472 258.659 154.48 258.449 152.513L256.549 134.461C256.287 132.01 254.925 129.807 252.841 128.496L247.928 125.402H241.194L236.49 139.758V139.744Z" fill="url(#paint6_linear_5412_80797)"/>
<path d="M233.87 160.719L231.25 234.133H244.352L247.994 181.891C248.178 179.308 249.606 176.975 251.82 175.638C253.733 174.484 255.082 172.583 255.515 170.394L257.441 160.732H233.857L233.87 160.719Z" fill="#4D5358"/>
<path d="M252.488 122.793H243.134C243.134 122.138 243.042 119.385 243.894 117.772L241.823 116.5C242.321 114.757 238.483 114.01 239.845 110.706L240.736 108.7C241.142 107.782 242.203 107.363 243.134 107.73L248.204 109.788C250.379 110.667 251.859 112.725 252.004 115.072L252.488 122.78V122.793Z" fill="#B28062"/>
<path d="M243.994 117.517C244.273 116.694 243.987 115.854 243.356 115.64C242.726 115.427 241.989 115.921 241.711 116.744C241.433 117.567 241.718 118.407 242.349 118.621C242.979 118.834 243.716 118.34 243.994 117.517Z" fill="#F8D6CC"/>
<path d="M237.499 117.117C237.106 117.524 236.988 118.205 236.988 118.205L237.643 118.415C237.853 117.76 237.499 117.13 237.499 117.13V117.117Z" fill="#B28062"/>
<path d="M244.351 234.133V241.999H236.673C235.009 241.999 234.158 240.203 236.031 239.023C237.905 237.843 239.477 237.24 239.661 234.133H244.351Z" fill="#121619"/>
<path d="M249.592 234.133V241.999H257.269C258.933 241.999 259.785 240.203 257.911 239.023C256.038 237.843 254.466 237.24 254.282 234.133H249.592Z" fill="#121619"/>
<path d="M247.915 127.278V124.512H239.831L239.32 127.278H247.915Z" fill="#0F62FE"/>
<path d="M238.43 127.171L236.792 128.22C235.744 128.889 234.997 129.924 234.67 131.117L231.25 143.677L241.64 147.609L245.95 132.782C246.566 130.685 245.741 128.43 243.919 127.211C242.269 126.096 240.107 126.083 238.43 127.158V127.171Z" fill="#0F62FE"/>
<path d="M225.969 160.718C227.463 160.718 229.166 159.08 229.939 158.097C230.332 157.611 233.32 154.032 235.114 151.869C236.032 150.781 236.818 149.575 237.447 148.304L238.403 146.39L231.236 143.676L229.913 148.264L224.698 156.877C224.279 157.572 223.624 158.11 222.838 158.372L220.401 159.211C219.025 159.683 219.025 160.718 219.025 160.718H225.943H225.969Z" fill="#F8D6CC"/>
<path d="M269.245 213.16H271.865V200.05H269.245V213.16Z" fill="url(#paint7_linear_5412_80797)"/>
<path d="M252.212 242.002C253.659 242.002 254.833 240.828 254.833 239.38C254.833 237.932 253.659 236.758 252.212 236.758C250.765 236.758 249.592 237.932 249.592 239.38C249.592 240.828 250.765 242.002 252.212 242.002Z" fill="white"/>
<path d="M288.898 242.002C290.345 242.002 291.518 240.828 291.518 239.38C291.518 237.932 290.345 236.758 288.898 236.758C287.451 236.758 286.277 237.932 286.277 239.38C286.277 240.828 287.451 242.002 288.898 242.002Z" fill="white"/>
<path d="M270.554 242.002C272.001 242.002 273.174 240.828 273.174 239.38C273.174 237.932 272.001 236.758 270.554 236.758C269.107 236.758 267.934 237.932 267.934 239.38C267.934 240.828 269.107 242.002 270.554 242.002Z" fill="white"/>
<path d="M271.865 200.707H278.377C279.242 200.707 280.067 201.048 280.683 201.664" stroke="#121619" stroke-miterlimit="10"/>
<path d="M273.174 228.891H267.934L269.244 236.756H271.864L273.174 228.891Z" fill="white"/>
<path d="M249.592 233.492V236.756H252.212V233.387L267.934 228.89H273.175L288.897 233.387V236.756H291.518V233.492C291.518 232.325 290.745 231.29 289.618 230.975L275.075 226.819C273.948 226.491 273.175 225.469 273.175 224.302V213.172H267.934V224.302C267.934 225.469 267.161 226.505 266.035 226.819L251.492 230.975C250.365 231.303 249.592 232.325 249.592 233.492Z" fill="white"/>
<path d="M288.898 194.805H252.213V192.183C252.213 190.741 253.392 189.561 254.834 189.561H286.278C287.719 189.561 288.898 190.741 288.898 192.183V194.805Z" fill="#D2745A"/>
<path d="M286.278 197.43H254.834C253.392 197.43 252.213 196.25 252.213 194.808H288.898C288.898 196.25 287.719 197.43 286.278 197.43Z" fill="#21272A"/>
<path d="M269.245 200.051H271.866C272.589 200.051 273.176 199.464 273.176 198.74C273.176 198.016 272.589 197.429 271.866 197.429H269.245C268.522 197.429 267.935 198.016 267.935 198.74C267.935 199.464 268.522 200.051 269.245 200.051Z" fill="#21272A"/>
<path d="M280.682 201.664L282.346 203.329" stroke="#343A3F" stroke-miterlimit="10" stroke-linecap="round"/>
<path d="M64.8567 194.805H62.2363V213.158H64.8567V194.805Z" fill="url(#paint8_linear_5412_80797)"/>
<path d="M81.8899 241.998C83.3371 241.998 84.5103 240.824 84.5103 239.376C84.5103 237.928 83.3371 236.754 81.8899 236.754C80.4427 236.754 79.2695 237.928 79.2695 239.376C79.2695 240.824 80.4427 241.998 81.8899 241.998Z" fill="white"/>
<path d="M45.2044 241.998C46.6515 241.998 47.8247 240.824 47.8247 239.376C47.8247 237.928 46.6515 236.754 45.2044 236.754C43.7572 236.754 42.584 237.928 42.584 239.376C42.584 240.824 43.7572 241.998 45.2044 241.998Z" fill="white"/>
<path d="M63.5462 241.998C64.9933 241.998 66.1665 240.824 66.1665 239.376C66.1665 237.928 64.9933 236.754 63.5462 236.754C62.099 236.754 60.9258 237.928 60.9258 239.376C60.9258 240.824 62.099 241.998 63.5462 241.998Z" fill="white"/>
<path d="M62.2375 195.461H55.7258C54.8611 195.461 54.0357 195.802 53.4199 196.418" stroke="#121619" stroke-miterlimit="10"/>
<path d="M60.9258 228.891H66.1665L64.8563 236.756H62.236L60.9258 228.891Z" fill="white"/>
<path d="M84.5099 233.492V236.756H81.8895V233.387L66.1673 228.89H60.9266L45.2044 233.387V236.756H42.584V233.492C42.584 232.325 43.357 231.29 44.4838 230.975L59.0268 226.819C60.1536 226.491 60.9266 225.469 60.9266 224.302V213.172H66.1673V224.302C66.1673 225.469 66.9403 226.505 68.0671 226.819L82.6101 230.975C83.7369 231.303 84.5099 232.325 84.5099 233.492Z" fill="white"/>
<path d="M47.8254 184.316H79.2699C80.7111 184.316 81.8903 185.496 81.8903 186.938V189.56H45.2051V186.938C45.2051 185.496 46.3842 184.316 47.8254 184.316Z" fill="#D2745A"/>
<path d="M45.2051 189.559H81.8903C81.8903 191.001 80.7111 192.181 79.2699 192.181H47.8254C46.3842 192.181 45.2051 191.001 45.2051 189.559Z" fill="#21272A"/>
<path d="M64.8563 192.184H62.236C61.5124 192.184 60.9258 192.771 60.9258 193.495C60.9258 194.219 61.5124 194.806 62.236 194.806H64.8563C65.5799 194.806 66.1665 194.219 66.1665 193.495C66.1665 192.771 65.5799 192.184 64.8563 192.184Z" fill="#21272A"/>
<path d="M53.4198 196.418L51.7559 198.083" stroke="#343A3F" stroke-miterlimit="10" stroke-linecap="round"/>
<path d="M284.328 27H241.291V82.1335L243.012 80.4106L282.606 28.7229L284.328 27Z" fill="#121619"/>
<path d="M284.328 27V82.1335H241.291L243.012 80.4106L282.623 28.7229L284.328 27Z" fill="#4D5358"/>
<path d="M282.752 28.8711H243.158V80.5587H282.752V28.8711Z" fill="#C6C6C6"/>
<path d="M262.608 67.3321C269.739 67.3321 275.519 61.5468 275.519 54.4102C275.519 47.2736 269.739 41.4883 262.608 41.4883C255.478 41.4883 249.697 47.2736 249.697 54.4102C249.697 61.5468 255.478 67.3321 262.608 67.3321Z" stroke="#121619" stroke-width="0.72" stroke-linejoin="round"/>
<path d="M261.574 52.6953C261.91 52.6953 262.254 52.6953 262.607 52.6953C269.734 52.6953 275.518 53.4706 275.518 54.4182C275.518 55.1505 272.127 55.7707 267.341 56.0205" stroke="#121619" stroke-width="0.72" stroke-linejoin="round"/>
<path d="M263.641 56.1338C263.305 56.1338 262.961 56.1338 262.608 56.1338C255.481 56.1338 249.697 55.3585 249.697 54.4109C249.697 53.6787 253.089 53.0584 257.874 52.8086" stroke="#121619" stroke-width="0.72" stroke-linejoin="round"/>
<path d="M258.477 47.5195L266.912 61.5958" stroke="#121619" stroke-width="0.72" stroke-linejoin="round"/>
<path d="M257.875 47.518C258.588 47.518 259.166 46.9394 259.166 46.2258C259.166 45.5121 258.588 44.9336 257.875 44.9336C257.162 44.9336 256.584 45.5121 256.584 46.2258C256.584 46.9394 257.162 47.518 257.875 47.518Z" stroke="#121619" stroke-width="0.72" stroke-linejoin="round"/>
<path d="M267.342 63.8852C268.055 63.8852 268.633 63.3066 268.633 62.593C268.633 61.8793 268.055 61.3008 267.342 61.3008C266.629 61.3008 266.051 61.8793 266.051 62.593C266.051 63.3066 266.629 63.8852 267.342 63.8852Z" stroke="#121619" stroke-width="0.72" stroke-linejoin="round"/>
<path d="M268.625 62.7397C271.543 62.4296 273.471 61.9041 273.471 61.301C273.471 60.3534 268.608 59.5781 262.609 59.5781C256.609 59.5781 251.746 60.3534 251.746 61.301C251.746 62.2487 256.609 63.024 262.609 63.024C263.831 63.024 265.001 62.9895 266.095 62.9292" stroke="#121619" stroke-width="0.72" stroke-linejoin="round"/>
<path d="M259.123 45.8916C260.216 45.8313 261.386 45.7969 262.609 45.7969C268.608 45.7969 273.471 46.5722 273.471 47.5198C273.471 48.4674 268.608 49.2427 262.609 49.2427C256.609 49.2427 251.746 48.4674 251.746 47.5198C251.746 46.9254 253.666 46.3913 256.583 46.0898" stroke="#121619" stroke-width="0.72" stroke-linejoin="round"/>
<path d="M230.263 27H86.067C84.6191 27 83.4453 27.9195 83.4453 29.0537V92.718C83.4453 93.8523 84.6191 94.7717 86.067 94.7717H230.263C231.71 94.7717 232.884 93.8523 232.884 92.718V29.0537C232.884 27.9195 231.71 27 230.263 27Z" fill="#121619"/>
<path d="M230.083 29.8047H86.248V91.9677H230.083V29.8047Z" fill="#21272A"/>
<path d="M91.3066 37.4883H224.841" stroke="#4D5358" stroke-miterlimit="10"/>
<path d="M91.3066 45.3555H224.841" stroke="#4D5358" stroke-miterlimit="10"/>
<path d="M91.3066 53.2188H224.841" stroke="#4D5358" stroke-miterlimit="10"/>
<path d="M91.3066 61.0859H224.841" stroke="#4D5358" stroke-miterlimit="10"/>
<path d="M91.3066 68.9531H224.841" stroke="#4D5358" stroke-miterlimit="10"/>
<path d="M91.3066 76.8164H224.841" stroke="#4D5358" stroke-miterlimit="10"/>
<path d="M91.3066 84.6836H224.841" stroke="#4D5358" stroke-miterlimit="10"/>
<path d="M99.1685 34.8672H93.9277V40.1111H99.1685V34.8672Z" fill="#697077"/>
<path d="M99.1685 42.7344H93.9277V47.9783H99.1685V42.7344Z" fill="#697077"/>
<path d="M99.1685 50.5977H93.9277V55.8416H99.1685V50.5977Z" fill="#697077"/>
<path d="M99.1685 58.4648H93.9277V63.7087H99.1685V58.4648Z" fill="#697077"/>
<path d="M99.1685 66.332H93.9277V71.5759H99.1685V66.332Z" fill="#697077"/>
<path d="M99.1685 74.1953H93.9277V79.4392H99.1685V74.1953Z" fill="#697077"/>
<path d="M99.1685 82.0625H93.9277V87.3064H99.1685V82.0625Z" fill="#697077"/>
<path d="M103.754 37.4883V45.3541" stroke="#FF7EB6" stroke-miterlimit="10"/>
<path d="M103.754 53.2188V61.0846" stroke="#FF7EB6" stroke-miterlimit="10"/>
<path d="M103.754 68.9531V76.819" stroke="#FF7EB6" stroke-miterlimit="10"/>
<path d="M126.682 45.3555V53.2213" stroke="#FF7EB6" stroke-miterlimit="10"/>
<path d="M126.682 61.0859V68.9518" stroke="#FF7EB6" stroke-miterlimit="10"/>
<path d="M126.682 76.8203V84.6862" stroke="#FF7EB6" stroke-miterlimit="10"/>
<path d="M172.539 45.3555V53.2213" stroke="#FF7EB6" stroke-miterlimit="10"/>
<path d="M172.539 61.0859V68.9518" stroke="#FF7EB6" stroke-miterlimit="10"/>
<path d="M172.539 76.8203V84.6862" stroke="#FF7EB6" stroke-miterlimit="10"/>
<path d="M149.609 37.4883V45.3541" stroke="#FF7EB6" stroke-miterlimit="10"/>
<path d="M149.609 53.2188V61.0846" stroke="#FF7EB6" stroke-miterlimit="10"/>
<path d="M149.609 68.9531V76.819" stroke="#FF7EB6" stroke-miterlimit="10"/>
<path d="M195.467 37.4883V45.3541" stroke="#FF7EB6" stroke-miterlimit="10"/>
<path d="M195.467 53.2188V61.0846" stroke="#FF7EB6" stroke-miterlimit="10"/>
<path d="M195.467 68.9531V76.819" stroke="#FF7EB6" stroke-miterlimit="10"/>
<path d="M113.581 34.8672H108.34V40.1111H113.581V34.8672Z" fill="#A56EFF"/>
<path d="M113.581 42.7344H108.34V47.9783H113.581V42.7344Z" fill="#A56EFF"/>
<path d="M113.581 50.5977H108.34V55.8416H113.581V50.5977Z" fill="#A56EFF"/>
<path d="M113.581 58.4648H108.34V63.7087H113.581V58.4648Z" fill="#A56EFF"/>
<path d="M113.581 66.332H108.34V71.5759H113.581V66.332Z" fill="#A56EFF"/>
<path d="M113.581 74.1953H108.34V79.4392H113.581V74.1953Z" fill="#A56EFF"/>
<path d="M113.581 82.0625H108.34V87.3064H113.581V82.0625Z" fill="#A56EFF"/>
<path d="M121.442 34.8672H116.201V40.1111H121.442V34.8672Z" fill="#A56EFF"/>
<path d="M129.303 34.8672H124.062V40.1111H129.303V34.8672Z" fill="#A56EFF"/>
<path d="M121.442 42.7344H116.201V47.9783H121.442V42.7344Z" fill="#A56EFF"/>
<path d="M121.442 50.5977H116.201V55.8416H121.442V50.5977Z" fill="#A56EFF"/>
<path d="M121.442 58.4648H116.201V63.7087H121.442V58.4648Z" fill="#A56EFF"/>
<path d="M121.442 66.332H116.201V71.5759H121.442V66.332Z" fill="#A56EFF"/>
<path d="M121.442 74.1953H116.201V79.4392H121.442V74.1953Z" fill="#A56EFF"/>
<path d="M121.442 82.0625H116.201V87.3064H121.442V82.0625Z" fill="#A56EFF"/>
<path d="M159.436 34.8672H154.195V40.1111H159.436V34.8672Z" fill="#A56EFF"/>
<path d="M159.436 42.7344H154.195V47.9783H159.436V42.7344Z" fill="#A56EFF"/>
<path d="M159.436 50.5977H154.195V55.8416H159.436V50.5977Z" fill="#A56EFF"/>
<path d="M159.436 58.4648H154.195V63.7087H159.436V58.4648Z" fill="#A56EFF"/>
<path d="M159.436 66.332H154.195V71.5759H159.436V66.332Z" fill="#A56EFF"/>
<path d="M159.436 74.1953H154.195V79.4392H159.436V74.1953Z" fill="#A56EFF"/>
<path d="M159.436 82.0625H154.195V87.3064H159.436V82.0625Z" fill="#A56EFF"/>
<path d="M167.297 34.8672H162.057V40.1111H167.297V34.8672Z" fill="#A56EFF"/>
<path d="M175.159 34.8672H169.918V40.1111H175.159V34.8672Z" fill="#A56EFF"/>
<path d="M167.297 42.7344H162.057V47.9783H167.297V42.7344Z" fill="#A56EFF"/>
<path d="M167.297 50.5977H162.057V55.8416H167.297V50.5977Z" fill="#A56EFF"/>
<path d="M167.297 58.4648H162.057V63.7087H167.297V58.4648Z" fill="#A56EFF"/>
<path d="M167.297 66.332H162.057V71.5759H167.297V66.332Z" fill="#A56EFF"/>
<path d="M167.297 74.1953H162.057V79.4392H167.297V74.1953Z" fill="#A56EFF"/>
<path d="M167.297 82.0625H162.057V87.3064H167.297V82.0625Z" fill="#A56EFF"/>
<path d="M205.293 34.8672H200.053V40.1111H205.293V34.8672Z" fill="#A56EFF"/>
<path d="M205.293 42.7344H200.053V47.9783H205.293V42.7344Z" fill="#A56EFF"/>
<path d="M205.293 50.5977H200.053V55.8416H205.293V50.5977Z" fill="#A56EFF"/>
<path d="M205.293 58.4648H200.053V63.7087H205.293V58.4648Z" fill="#A56EFF"/>
<path d="M205.293 66.332H200.053V71.5759H205.293V66.332Z" fill="#A56EFF"/>
<path d="M205.293 74.1953H200.053V79.4392H205.293V74.1953Z" fill="#A56EFF"/>
<path d="M205.293 82.0625H200.053V87.3064H205.293V82.0625Z" fill="#A56EFF"/>
<path d="M213.155 34.8672H207.914V40.1111H213.155V34.8672Z" fill="#A56EFF"/>
<path d="M221.016 34.8672H215.775V40.1111H221.016V34.8672Z" fill="#A56EFF"/>
<path d="M213.155 42.7344H207.914V47.9783H213.155V42.7344Z" fill="#A56EFF"/>
<path d="M213.155 50.5977H207.914V55.8416H213.155V50.5977Z" fill="#A56EFF"/>
<path d="M213.155 58.4648H207.914V63.7087H213.155V58.4648Z" fill="#A56EFF"/>
<path d="M213.155 66.332H207.914V71.5759H213.155V66.332Z" fill="#A56EFF"/>
<path d="M213.155 74.1953H207.914V79.4392H213.155V74.1953Z" fill="#A56EFF"/>
<path d="M213.155 82.0625H207.914V87.3064H213.155V82.0625Z" fill="#A56EFF"/>
<path d="M137.163 42.7344H131.922V47.9783H137.163V42.7344Z" fill="#A56EFF"/>
<path d="M137.163 50.6016H131.922V55.8455H137.163V50.6016Z" fill="#A56EFF"/>
<path d="M137.163 58.4648H131.922V63.7087H137.163V58.4648Z" fill="#A56EFF"/>
<path d="M137.163 66.332H131.922V71.5759H137.163V66.332Z" fill="#A56EFF"/>
<path d="M137.163 74.1992H131.922V79.4431H137.163V74.1992Z" fill="#A56EFF"/>
<path d="M137.163 82.0625H131.922V87.3064H137.163V82.0625Z" fill="#A56EFF"/>
<path d="M145.024 42.7344H139.783V47.9783H145.024V42.7344Z" fill="#A56EFF"/>
<path d="M145.024 50.6016H139.783V55.8455H145.024V50.6016Z" fill="#A56EFF"/>
<path d="M145.024 58.4648H139.783V63.7087H145.024V58.4648Z" fill="#A56EFF"/>
<path d="M145.024 66.332H139.783V71.5759H145.024V66.332Z" fill="#A56EFF"/>
<path d="M145.024 74.1992H139.783V79.4431H145.024V74.1992Z" fill="#A56EFF"/>
<path d="M145.024 82.0625H139.783V87.3064H145.024V82.0625Z" fill="#A56EFF"/>
<path d="M183.02 42.7344H177.779V47.9783H183.02V42.7344Z" fill="#A56EFF"/>
<path d="M183.02 50.6016H177.779V55.8455H183.02V50.6016Z" fill="#A56EFF"/>
<path d="M183.02 58.4648H177.779V63.7087H183.02V58.4648Z" fill="#A56EFF"/>
<path d="M183.02 66.332H177.779V71.5759H183.02V66.332Z" fill="#A56EFF"/>
<path d="M183.02 74.1992H177.779V79.4431H183.02V74.1992Z" fill="#A56EFF"/>
<path d="M183.02 82.0625H177.779V87.3064H183.02V82.0625Z" fill="#A56EFF"/>
<path d="M190.881 42.7344H185.641V47.9783H190.881V42.7344Z" fill="#A56EFF"/>
<path d="M190.881 50.6016H185.641V55.8455H190.881V50.6016Z" fill="#A56EFF"/>
<path d="M190.881 58.4648H185.641V63.7087H190.881V58.4648Z" fill="#A56EFF"/>
<path d="M190.881 66.332H185.641V71.5759H190.881V66.332Z" fill="#A56EFF"/>
<path d="M190.881 74.1992H185.641V79.4431H190.881V74.1992Z" fill="#A56EFF"/>
<path d="M190.881 82.0625H185.641V87.3064H190.881V82.0625Z" fill="#A56EFF"/>
<path d="M103.754 38.8016C104.477 38.8016 105.064 38.2147 105.064 37.4907C105.064 36.7666 104.477 36.1797 103.754 36.1797C103.03 36.1797 102.443 36.7666 102.443 37.4907C102.443 38.2147 103.03 38.8016 103.754 38.8016Z" fill="#FF7EB6"/>
<path d="M103.754 46.6688C104.477 46.6688 105.064 46.0819 105.064 45.3579C105.064 44.6338 104.477 44.0469 103.754 44.0469C103.03 44.0469 102.443 44.6338 102.443 45.3579C102.443 46.0819 103.03 46.6688 103.754 46.6688Z" fill="#FF7EB6"/>
<path d="M103.754 54.5321C104.477 54.5321 105.064 53.9452 105.064 53.2211C105.064 52.4971 104.477 51.9102 103.754 51.9102C103.03 51.9102 102.443 52.4971 102.443 53.2211C102.443 53.9452 103.03 54.5321 103.754 54.5321Z" fill="#FF7EB6"/>
<path d="M103.754 62.3993C104.477 62.3993 105.064 61.8124 105.064 61.0883C105.064 60.3643 104.477 59.7773 103.754 59.7773C103.03 59.7773 102.443 60.3643 102.443 61.0883C102.443 61.8124 103.03 62.3993 103.754 62.3993Z" fill="#FF7EB6"/>
<path d="M103.754 70.2665C104.477 70.2665 105.064 69.6795 105.064 68.9555C105.064 68.2315 104.477 67.6445 103.754 67.6445C103.03 67.6445 102.443 68.2315 102.443 68.9555C102.443 69.6795 103.03 70.2665 103.754 70.2665Z" fill="#FF7EB6"/>
<path d="M103.754 78.1298C104.477 78.1298 105.064 77.5428 105.064 76.8188C105.064 76.0948 104.477 75.5078 103.754 75.5078C103.03 75.5078 102.443 76.0948 102.443 76.8188C102.443 77.5428 103.03 78.1298 103.754 78.1298Z" fill="#FF7EB6"/>
<path d="M149.609 38.8016C150.333 38.8016 150.919 38.2147 150.919 37.4907C150.919 36.7666 150.333 36.1797 149.609 36.1797C148.885 36.1797 148.299 36.7666 148.299 37.4907C148.299 38.2147 148.885 38.8016 149.609 38.8016Z" fill="#FF7EB6"/>
<path d="M149.609 46.6688C150.333 46.6688 150.919 46.0819 150.919 45.3579C150.919 44.6338 150.333 44.0469 149.609 44.0469C148.885 44.0469 148.299 44.6338 148.299 45.3579C148.299 46.0819 148.885 46.6688 149.609 46.6688Z" fill="#FF7EB6"/>
<path d="M149.609 54.5321C150.333 54.5321 150.919 53.9452 150.919 53.2211C150.919 52.4971 150.333 51.9102 149.609 51.9102C148.885 51.9102 148.299 52.4971 148.299 53.2211C148.299 53.9452 148.885 54.5321 149.609 54.5321Z" fill="#FF7EB6"/>
<path d="M149.609 62.3993C150.333 62.3993 150.919 61.8124 150.919 61.0883C150.919 60.3643 150.333 59.7773 149.609 59.7773C148.885 59.7773 148.299 60.3643 148.299 61.0883C148.299 61.8124 148.885 62.3993 149.609 62.3993Z" fill="#FF7EB6"/>
<path d="M149.609 70.2665C150.333 70.2665 150.919 69.6795 150.919 68.9555C150.919 68.2315 150.333 67.6445 149.609 67.6445C148.885 67.6445 148.299 68.2315 148.299 68.9555C148.299 69.6795 148.885 70.2665 149.609 70.2665Z" fill="#FF7EB6"/>
<path d="M149.609 78.1298C150.333 78.1298 150.919 77.5428 150.919 76.8188C150.919 76.0948 150.333 75.5078 149.609 75.5078C148.885 75.5078 148.299 76.0948 148.299 76.8188C148.299 77.5428 148.885 78.1298 149.609 78.1298Z" fill="#FF7EB6"/>
<path d="M195.466 38.8016C196.19 38.8016 196.777 38.2147 196.777 37.4907C196.777 36.7666 196.19 36.1797 195.466 36.1797C194.743 36.1797 194.156 36.7666 194.156 37.4907C194.156 38.2147 194.743 38.8016 195.466 38.8016Z" fill="#FF7EB6"/>
<path d="M195.466 46.6649C196.19 46.6649 196.777 46.078 196.777 45.3539C196.777 44.6299 196.19 44.043 195.466 44.043C194.743 44.043 194.156 44.6299 194.156 45.3539C194.156 46.078 194.743 46.6649 195.466 46.6649Z" fill="#FF7EB6"/>
<path d="M195.466 54.5321C196.19 54.5321 196.777 53.9452 196.777 53.2211C196.777 52.4971 196.19 51.9102 195.466 51.9102C194.743 51.9102 194.156 52.4971 194.156 53.2211C194.156 53.9452 194.743 54.5321 195.466 54.5321Z" fill="#FF7EB6"/>
<path d="M195.466 62.3993C196.19 62.3993 196.777 61.8124 196.777 61.0883C196.777 60.3643 196.19 59.7773 195.466 59.7773C194.743 59.7773 194.156 60.3643 194.156 61.0883C194.156 61.8124 194.743 62.3993 195.466 62.3993Z" fill="#FF7EB6"/>
<path d="M195.466 70.2626C196.19 70.2626 196.777 69.6756 196.777 68.9516C196.777 68.2276 196.19 67.6406 195.466 67.6406C194.743 67.6406 194.156 68.2276 194.156 68.9516C194.156 69.6756 194.743 70.2626 195.466 70.2626Z" fill="#FF7EB6"/>
<path d="M195.466 78.1298C196.19 78.1298 196.777 77.5428 196.777 76.8188C196.777 76.0948 196.19 75.5078 195.466 75.5078C194.743 75.5078 194.156 76.0948 194.156 76.8188C194.156 77.5428 194.743 78.1298 195.466 78.1298Z" fill="#FF7EB6"/>
<path d="M126.681 46.6649C127.405 46.6649 127.991 46.078 127.991 45.3539C127.991 44.6299 127.405 44.043 126.681 44.043C125.958 44.043 125.371 44.6299 125.371 45.3539C125.371 46.078 125.958 46.6649 126.681 46.6649Z" fill="#FF7EB6"/>
<path d="M126.681 54.5321C127.405 54.5321 127.991 53.9452 127.991 53.2211C127.991 52.4971 127.405 51.9102 126.681 51.9102C125.958 51.9102 125.371 52.4971 125.371 53.2211C125.371 53.9452 125.958 54.5321 126.681 54.5321Z" fill="#FF7EB6"/>
<path d="M126.681 62.3954C127.405 62.3954 127.991 61.8084 127.991 61.0844C127.991 60.3604 127.405 59.7734 126.681 59.7734C125.958 59.7734 125.371 60.3604 125.371 61.0844C125.371 61.8084 125.958 62.3954 126.681 62.3954Z" fill="#FF7EB6"/>
<path d="M126.681 70.2626C127.405 70.2626 127.991 69.6756 127.991 68.9516C127.991 68.2276 127.405 67.6406 126.681 67.6406C125.958 67.6406 125.371 68.2276 125.371 68.9516C125.371 69.6756 125.958 70.2626 126.681 70.2626Z" fill="#FF7EB6"/>
<path d="M126.681 78.1298C127.405 78.1298 127.991 77.5428 127.991 76.8188C127.991 76.0948 127.405 75.5078 126.681 75.5078C125.958 75.5078 125.371 76.0948 125.371 76.8188C125.371 77.5428 125.958 78.1298 126.681 78.1298Z" fill="#FF7EB6"/>
<path d="M126.681 85.993C127.405 85.993 127.991 85.4061 127.991 84.6821C127.991 83.958 127.405 83.3711 126.681 83.3711C125.958 83.3711 125.371 83.958 125.371 84.6821C125.371 85.4061 125.958 85.993 126.681 85.993Z" fill="#FF7EB6"/>
<path d="M172.539 46.6649C173.262 46.6649 173.849 46.078 173.849 45.3539C173.849 44.6299 173.262 44.043 172.539 44.043C171.815 44.043 171.229 44.6299 171.229 45.3539C171.229 46.078 171.815 46.6649 172.539 46.6649Z" fill="#FF7EB6"/>
<path d="M172.539 54.5321C173.262 54.5321 173.849 53.9452 173.849 53.2211C173.849 52.4971 173.262 51.9102 172.539 51.9102C171.815 51.9102 171.229 52.4971 171.229 53.2211C171.229 53.9452 171.815 54.5321 172.539 54.5321Z" fill="#FF7EB6"/>
<path d="M172.539 62.3993C173.262 62.3993 173.849 61.8124 173.849 61.0883C173.849 60.3643 173.262 59.7773 172.539 59.7773C171.815 59.7773 171.229 60.3643 171.229 61.0883C171.229 61.8124 171.815 62.3993 172.539 62.3993Z" fill="#FF7EB6"/>
<path d="M172.539 70.2626C173.262 70.2626 173.849 69.6756 173.849 68.9516C173.849 68.2276 173.262 67.6406 172.539 67.6406C171.815 67.6406 171.229 68.2276 171.229 68.9516C171.229 69.6756 171.815 70.2626 172.539 70.2626Z" fill="#FF7EB6"/>
<path d="M172.539 78.1298C173.262 78.1298 173.849 77.5428 173.849 76.8188C173.849 76.0948 173.262 75.5078 172.539 75.5078C171.815 75.5078 171.229 76.0948 171.229 76.8188C171.229 77.5428 171.815 78.1298 172.539 78.1298Z" fill="#FF7EB6"/>
<path d="M172.539 85.997C173.262 85.997 173.849 85.41 173.849 84.686C173.849 83.9619 173.262 83.375 172.539 83.375C171.815 83.375 171.229 83.9619 171.229 84.686C171.229 85.41 171.815 85.997 172.539 85.997Z" fill="#FF7EB6"/>
</g>
<defs>
<linearGradient id="paint0_linear_5412_80797" x1="156.571" y1="138.434" x2="156.571" y2="160.72" gradientUnits="userSpaceOnUse">
<stop stop-color="#343A3F"/>
<stop offset="0.23" stop-color="#3F454A"/>
<stop offset="0.58" stop-color="#494F54"/>
<stop offset="1" stop-color="#4D5358"/>
</linearGradient>
<linearGradient id="paint1_linear_5412_80797" x1="112.024" y1="150.23" x2="112.024" y2="160.718" gradientUnits="userSpaceOnUse">
<stop stop-color="#343A3F"/>
<stop offset="0.23" stop-color="#3F454A"/>
<stop offset="0.58" stop-color="#494F54"/>
<stop offset="1" stop-color="#4D5358"/>
</linearGradient>
<linearGradient id="paint2_linear_5412_80797" x1="68.041" y1="217.474" x2="75.9152" y2="217.474" gradientUnits="userSpaceOnUse">
<stop stop-color="#B28062"/>
<stop offset="1" stop-color="#93633F"/>
</linearGradient>
<linearGradient id="paint3_linear_5412_80797" x1="52.4228" y1="150.051" x2="79.0128" y2="163.201" gradientUnits="userSpaceOnUse">
<stop offset="0.41" stop-color="#E0E0E0"/>
<stop offset="0.73" stop-color="#CFCFCF"/>
<stop offset="0.88" stop-color="#C6C6C6"/>
</linearGradient>
<linearGradient id="paint4_linear_5412_80797" x1="52.0565" y1="135.326" x2="74.7019" y2="146.524" gradientUnits="userSpaceOnUse">
<stop offset="0.12" stop-color="#F4F4F4"/>
<stop offset="0.19" stop-color="#F0F0F0"/>
<stop offset="0.59" stop-color="#E0E0E0"/>
</linearGradient>
<linearGradient id="paint5_linear_5412_80797" x1="243.565" y1="204.65" x2="283.128" y2="187.362" gradientUnits="userSpaceOnUse">
<stop stop-color="#21272A"/>
<stop offset="0.1" stop-color="#242A2E"/>
<stop offset="0.59" stop-color="#4D5358"/>
</linearGradient>
<linearGradient id="paint6_linear_5412_80797" x1="229.009" y1="148.161" x2="259.748" y2="140.448" gradientUnits="userSpaceOnUse">
<stop offset="0.18" stop-color="#0043CE"/>
<stop offset="0.61" stop-color="#0F62FE"/>
</linearGradient>
<linearGradient id="paint7_linear_5412_80797" x1="270.555" y1="200.05" x2="270.555" y2="213.16" gradientUnits="userSpaceOnUse">
<stop stop-color="#121619"/>
<stop offset="0.12" stop-color="#1B2023"/>
<stop offset="0.34" stop-color="#292E33"/>
<stop offset="0.61" stop-color="#31373C"/>
<stop offset="1" stop-color="#343A3F"/>
</linearGradient>
<linearGradient id="paint8_linear_5412_80797" x1="63.5465" y1="194.805" x2="63.5465" y2="213.158" gradientUnits="userSpaceOnUse">
<stop stop-color="#121619"/>
<stop offset="0.12" stop-color="#1B2023"/>
<stop offset="0.34" stop-color="#292E33"/>
<stop offset="0.61" stop-color="#31373C"/>
<stop offset="1" stop-color="#343A3F"/>
</linearGradient>
<clipPath id="clip0_5412_80797">
<rect width="283" height="215" fill="white" transform="translate(19 27)"/>
</clipPath>
</defs>
</svg>
